<svg xmlns="http://www.w3.org/2000/svg" width="94" height="75" viewBox="-5 -5 94 75" y="79"><defs><path id="ca" d="M.435.166C.51 4.98.72 9.735 1.067 11.092c.704 2.756 3.312 4.451 5.355 4.451H69.61c2.044 0 4.651-1.695 5.356-4.45.347-1.358.557-6.114.63-10.927H.437"/></defs><g fill="none" fill-rule="evenodd"><path fill="#8A9BC2" d="M76.112 19.783c0 .538-.474 1.387-1.132 1.528l.705 1.295s.607-1.03 2.089-.585h.636v-2.238h-2.298"/><path fill="#C2CDE5" d="M83.834 19.546c.057 1.14-1.547 2.243-3.146 2.649-2.353.597-4.58-.526-4.58-2.856 0-2.26 1.57-3.43 3.864-2.76 1.58.462 3.806 1.844 3.862 2.967"/><path fill="#8A9BC2" d="M7.371 19.783c0 .538.475 1.387 1.133 1.528l-.705 1.295s-.608-1.03-2.09-.585h-.635v-2.238H7.37"/><path fill="#C2CDE5" d="M.002 19.546c-.058 1.14 1.546 2.243 3.145 2.649 2.352.597 4.58-.526 4.58-2.856 0-2.26-1.57-3.43-3.864-2.76-1.58.462-3.806 1.844-3.861 2.967"/><path fill="#8A9BC2" d="M69.906 62.836c0 1.096.886 1.985 1.98 1.985h6.187c1.094 0 1.98-.89 1.98-1.985V43.81a1.983 1.983 0 00-1.98-1.985h-6.187c-1.094 0-1.98.889-1.98 1.985v19.025m-65.96.001c0 1.096.887 1.985 1.98 1.985h6.187c1.094 0 1.981-.89 1.981-1.985V43.81a1.983 1.983 0 00-1.98-1.985H5.925c-1.093 0-1.98.889-1.98 1.985v19.025"/><path fill="#C2CDE5" d="M79.493 28.99c-.423-2.826-2.608-6.005-3.806-8.407S70.073 6.876 68.993 4.898C67.912 2.92 65.61.907 62.79.483 59.973.059 47.523 0 42.12 0c-5.402 0-17.852.059-20.67.483-2.82.424-5.122 2.437-6.202 4.415-1.08 1.978-5.497 13.283-6.695 15.685-1.198 2.402-3.382 5.581-3.805 8.408-.423 2.826-.282 19.57.423 22.326.704 2.755 3.312 4.45 5.355 4.45h63.188c2.044 0 4.651-1.695 5.356-4.45.705-2.756.846-19.5.423-22.326"/><g transform="translate(3.946 40.13)"><mask id="cb" fill="#fff"><use xmlns:xlink="http://www.w3.org/1999/xlink" xlink:href="#ca"/></mask><path fill="#C2CDE5" d="M.435.166C.51 4.98.72 9.735 1.067 11.092c.704 2.756 3.312 4.451 5.355 4.451H69.61c2.044 0 4.651-1.695 5.356-4.45.347-1.358.557-6.114.63-10.927H.437" mask="url(#cb)"/></g><path fill="#8A9BC2" d="M75.528 50.853c.403.988-.088 1.807-1.105 1.807H9.138c-1.017 0-1.507-.819-1.105-1.807l1.418-3.48c.361-.886 1.405-1.59 2.339-1.59h59.98c.935 0 1.979.704 2.34 1.59l1.417 3.48m-18.386-15.81c-.423-1.271-2.255-2.26-4.087-2.26H31.208c-1.832 0-3.664.989-4.087 2.26-.423 1.272 1.48 6.507 2.185 7.457.704.951 1.48 1.187 3.734 1.187h18.181c2.256 0 3.03-.236 3.736-1.187.704-.95 2.607-6.185 2.184-7.457"/><path fill="#F6F9FF" d="M72.596 18.629c-.352-1.225-3.735-9.868-4.721-11.917-.987-2.049-2.326-2.755-3.312-2.755H19.415c-.987 0-2.326.706-3.312 2.755-.987 2.049-4.37 10.692-4.722 11.917-.352 1.224.212 1.79 1.128 1.79h58.96c.916 0 1.48-.566 1.127-1.79m-11.71 14.224s3.1 3.886 4.65 3.886h8.95c1.41 0 1.762-.848 2.044-1.625.282-.777.423-4.875 0-6.288 0 0-6.272 2.614-15.644 4.027m-37.646 0s-3.1 3.886-4.651 3.886h-8.95c-1.41 0-1.761-.848-2.043-1.625-.282-.777-.423-4.875 0-6.288 0 0 6.272 2.614 15.644 4.027"/></g></svg>