<svg xmlns="http://www.w3.org/2000/svg" width="94" height="75" viewBox="-5 -5 94 75" x="128"><defs><path id="aa" d="M.058.05c.108 3.053.283 5.59.52 6.52.705 2.756 3.312 4.452 5.356 4.452H11.5c1.268 0 2.07-1.013 2.227-1.361l.747-1.673c.36-.805 1.4-1.438 2.334-1.438h41.436c.935 0 1.975.633 2.335 1.438l.78 1.748c.219.396.992 1.286 2.185 1.286h5.577c2.043 0 4.65-1.696 5.356-4.451.237-.932.412-3.468.52-6.521H.058"/><path id="ac" d="M72.733 9.32c-.852-1.86-2.006-3.698-2.766-5.222-.338-.68-.935-2.073-1.642-3.766H4.475C3.77 2.025 3.172 3.418 2.833 4.098 2.073 5.622.92 7.459.068 9.32h72.665"/></defs><g fill="none" fill-rule="evenodd"><path fill="#8A9BC2" d="M65.674 52.942c0 .936-.756 1.696-1.69 1.696h-43.69c-.934 0-1.691-.76-1.691-1.696V49.74c0-.936.757-1.696 1.691-1.696h43.688c.935 0 1.691.76 1.691 1.696v3.203m10.439-33.16c0 .538-.474 1.387-1.132 1.528l.705 1.295s.607-1.03 2.089-.585h.635v-2.238h-2.297"/><path fill="#C2CDE5" d="M83.834 19.546c.057 1.14-1.547 2.243-3.146 2.649-2.353.597-4.58-.526-4.58-2.856 0-2.26 1.57-3.43 3.864-2.76 1.58.462 3.806 1.844 3.862 2.967"/><path fill="#8A9BC2" d="M7.372 19.783c0 .538.474 1.387 1.131 1.528l-.705 1.295s-.607-1.03-2.088-.585h-.636v-2.238h2.298"/><path fill="#C2CDE5" d="M.001 19.546c-.056 1.14 1.548 2.243 3.146 2.649 2.352.597 4.58-.526 4.58-2.856 0-2.26-1.57-3.43-3.864-2.76-1.58.462-3.805 1.844-3.862 2.967"/><path fill="#8A9BC2" d="M69.906 62.836c0 1.096.887 1.985 1.98 1.985h6.187c1.094 0 1.98-.89 1.98-1.985V43.81a1.983 1.983 0 00-1.98-1.985h-6.186a1.983 1.983 0 00-1.981 1.985v19.025m-65.96.001c0 1.096.887 1.985 1.98 1.985h6.187c1.094 0 1.981-.89 1.981-1.985V43.81a1.983 1.983 0 00-1.98-1.985H5.926c-1.094 0-1.98.889-1.98 1.985v19.025"/><path fill="#C2CDE5" d="M79.493 28.99c-.423-2.826-2.607-6.005-3.805-8.407S70.073 6.876 68.993 4.898C67.913 2.92 65.611.907 62.792.483 59.973.059 47.523 0 42.12 0c-5.403 0-17.853.059-20.672.483-2.819.424-5.12 2.437-6.201 4.415-1.08 1.978-5.497 13.283-6.695 15.685-1.198 2.402-3.382 5.581-3.805 8.408-.423 2.826-.282 19.57.423 22.326.704 2.755 3.312 4.45 5.355 4.45h5.568c1.268 0 2.07-1.012 2.226-1.36l.748-1.673c.36-.805 1.4-1.438 2.334-1.438h41.436c.935 0 1.975.633 2.335 1.438l.78 1.748c.219.396.992 1.286 2.185 1.286h5.577c2.043 0 4.65-1.696 5.355-4.451.705-2.756.846-19.5.423-22.326"/><g transform="translate(4.51 44.652)"><mask id="ab" fill="#fff"><use xmlns:xlink="http://www.w3.org/1999/xlink" xlink:href="#aa"/></mask><path fill="#C2CDE5" d="M.058.05c.108 3.053.283 5.59.52 6.52.705 2.756 3.312 4.452 5.356 4.452H11.5c1.268 0 2.07-1.013 2.227-1.361l.747-1.673c.36-.805 1.4-1.438 2.334-1.438h41.436c.935 0 1.975.633 2.335 1.438l.78 1.748c.219.396.992 1.286 2.185 1.286h5.577c2.043 0 4.65-1.696 5.356-4.451.237-.932.412-3.468.52-6.521H.058" mask="url(#ab)"/></g><g transform="translate(5.638 16.391)"><mask id="ad" fill="#fff"><use xmlns:xlink="http://www.w3.org/1999/xlink" xlink:href="#ac"/></mask><path fill="#C2CDE5" d="M72.733 9.32c-.852-1.86-2.006-3.698-2.766-5.222-.338-.68-.935-2.073-1.642-3.766H4.475C3.77 2.025 3.172 3.418 2.833 4.098 2.073 5.622.92 7.459.068 9.32h72.665" mask="url(#ad)"/></g><path fill="#F6F9FF" d="M68.98 15.45c-.224-.99-3.184-10.363-9.244-10.363H23.937c-6.06 0-9.02 9.374-9.243 10.363-.223.989.575 2.166 2.408 2.166H66.57c1.833 0 2.632-1.177 2.408-2.166"/><path fill="#8A9BC2" d="M73.442 24.311s-13.706 1.578-14.2 1.636c-.493.06-.845.555-.422 1.402.422.848 2.395 3.18 3.1 3.674.705.495 1.726 1.024 3.735 1.378 2.008.353 6.307 1.2 6.941 1.378.634.176 1.55-.672 1.656-1.308.106-.635.176-6.747.176-7.188 0-.442-.302-1.05-.986-.972m-63.435 0s13.706 1.578 14.2 1.636c.492.06.845.555.422 1.402-.423.848-2.396 3.18-3.1 3.674-.705.495-1.727 1.024-3.736 1.378-2.008.353-6.306 1.2-6.94 1.378-.635.176-1.551-.672-1.657-1.308-.105-.635-.176-6.747-.176-7.188 0-.442.303-1.05.987-.972m14.376 18.087c0 .629-.508 1.137-1.134 1.137H12.41a1.136 1.136 0 01-1.134-1.137c0-.628.508-1.137 1.134-1.137h10.84c.626 0 1.134.51 1.134 1.137m48.482 0c0 .629-.508 1.137-1.135 1.137h-10.84a1.135 1.135 0 01-1.133-1.137c0-.628.508-1.137 1.134-1.137h10.84c.626 0 1.134.51 1.134 1.137"/><path fill="#F6F9FF" d="M33.262 34.003h17.194v-5.742H33.262z"/></g></svg>