<?xml version="1.0" encoding="utf-8"?><svg width="506" height="501" viewBox="0 0 506 501" xmlns="http://www.w3.org/2000/svg" xmlns:xlink="http://www.w3.org/1999/xlink"><view id="barter" viewBox="420 275 29 25"/><svg width="29" height="25" viewBox="-5 -5 29 25" x="420" y="275" xmlns="http://www.w3.org/2000/svg"><path d="M9.5.875c-3.644 0-6.625 2.98-6.625 6.625H.667l3.312 4.417L7.29 7.5H5.08A4.4 4.4 0 019.5 3.083V.875zm5.52 2.208L11.71 7.5h2.21a4.4 4.4 0 01-4.42 4.417v2.208c3.644 0 6.625-2.98 6.625-6.625h2.208L15.02 3.083z" fill="#FFF" fill-rule="evenodd"/></svg><view id="bookmarks--favorite-selected" viewBox="359 338 30 27"/><svg width="30" height="27" viewBox="-5 -5 30 27" x="359" y="338" xmlns="http://www.w3.org/2000/svg"><path d="M14.35.766a4.89 4.89 0 014.212 2.373 4.715 4.715 0 01.432 3.906c-.83 3.651-7.302 7.975-8.993 9.052-1.692-1.077-8.168-5.4-8.975-8.978a4.86 4.86 0 01-.26-1.549c0-.888.245-1.719.672-2.432a4.877 4.877 0 011.848-1.772 4.94 4.94 0 012.362-.6 4.917 4.917 0 014.356 2.615 4.88 4.88 0 01.584-.872A4.901 4.901 0 0114.349.766z" fill="#FF3C00" fill-rule="nonzero" stroke="#FFF" stroke-width="1.531"/></svg><view id="bookmarks--favorite-unselected" viewBox="389 338 30 27"/><svg width="30" height="27" viewBox="-5 -5 30 27" x="389" y="338" xmlns="http://www.w3.org/2000/svg"><path d="M14.35.766a4.89 4.89 0 014.212 2.373 4.715 4.715 0 01.432 3.906c-.83 3.651-7.302 7.975-8.993 9.052-1.692-1.077-8.168-5.4-8.975-8.978a4.86 4.86 0 01-.26-1.549c0-.888.245-1.719.672-2.432a4.877 4.877 0 011.848-1.772 4.94 4.94 0 012.362-.6 4.917 4.917 0 014.356 2.615 4.88 4.88 0 01.584-.872A4.901 4.901 0 0114.349.766z" fill="#212C3A" fill-rule="nonzero" stroke="#FFF" stroke-width="1.531" fill-opacity=".297"/></svg><view id="bookmarks--grey-heart" viewBox="295 338 32 28"/><svg width="32" height="28" viewBox="-5 -5 32 28" x="295" y="338" xmlns="http://www.w3.org/2000/svg"><path d="M18.787.733A6.465 6.465 0 0015.784 0c-1.923 0-3.645.831-4.782 2.135C9.859.831 8.139 0 6.213 0a6.469 6.469 0 00-3 .733C1.298 1.74 0 3.674 0 5.898c0 .636.11 1.247.307 1.818C1.373 12.264 11.002 18 11.002 18s9.622-5.736 10.69-10.284A5.547 5.547 0 0022 5.898c0-2.223-1.298-4.157-3.213-5.165z" fill="#8D94AD"/></svg><view id="bookmarks--heart-bordered" viewBox="334 372 31 28"/><svg width="31" height="28" viewBox="-5 -5 31 28" x="334" y="372" xmlns="http://www.w3.org/2000/svg"><path fill="none" d="M-1-1h23v20H-1z"/><g fill-rule="evenodd" fill="none"><path d="M17.728 3.257c-1.68-1.486-4.405-1.486-6.087 0l-1.14 1.01-1.142-1.01c-1.68-1.486-4.406-1.486-6.086 0-1.891 1.673-1.891 4.385 0 6.057L10.5 15.71l7.228-6.393c1.89-1.673 1.89-4.385 0-6.058z" fill="#FFF"/><path d="M9.65 2.95c-1.844-1.633-4.822-1.633-6.67 0-2.077 1.838-2.077 4.834 0 6.671l7.52 6.653 7.52-6.652c2.077-1.838 2.077-4.834 0-6.672-1.846-1.633-4.824-1.633-6.67 0l-.85.751-.85-.75zm.85 12.194L3.565 9.007C1.86 7.5 1.86 5.072 3.565 3.564c1.515-1.34 3.986-1.34 5.501 0l1.142 1.01.292.26 1.434-1.27c1.515-1.34 3.986-1.34 5.501 0 1.705 1.508 1.705 3.936 0 5.444L10.5 15.143v.001z" stroke-width=".7" stroke="#848484" fill-rule="nonzero" fill="#848484"/></g></svg><view id="bookmarks--heart-bordered-active" viewBox="365 372 31 28"/><svg width="31" height="28" viewBox="-5 -5 31 28" x="365" y="372" xmlns="http://www.w3.org/2000/svg"><path fill="none" d="M-1-1h23v20H-1z"/><g fill-rule="evenodd" fill="none"><path d="M17.728 3.257c-1.68-1.486-4.405-1.486-6.087 0l-1.14 1.01-1.142-1.01c-1.68-1.486-4.406-1.486-6.086 0-1.891 1.673-1.891 4.385 0 6.057L10.5 15.71l7.228-6.393c1.89-1.673 1.89-4.385 0-6.058z" fill="#FFF"/><path d="M9.65 2.95c-1.844-1.633-4.822-1.633-6.67 0-2.077 1.838-2.077 4.834 0 6.671l7.52 6.653 7.52-6.652c2.077-1.838 2.077-4.834 0-6.672-1.846-1.633-4.824-1.633-6.67 0l-.85.751-.85-.75zm.85 12.194L3.565 9.007C1.86 7.5 1.86 5.072 3.565 3.564c1.515-1.34 3.986-1.34 5.501 0l1.142 1.01.292.26 1.434-1.27c1.515-1.34 3.986-1.34 5.501 0 1.705 1.508 1.705 3.936 0 5.444L10.5 15.143v.001z" stroke-width=".7" stroke="#FF380D" fill-rule="nonzero" fill="#FF380D"/></g></svg><view id="bookmarks--heart-filled" viewBox="456 212 42 36"/><svg width="42" height="36" viewBox="-5 -5 42 36" x="456" y="212" xmlns="http://www.w3.org/2000/svg"><defs><filter id="aga" width="158.6%" height="175%" x="-29.3%" y="-26.8%" filterUnits="objectBoundingBox"><feGaussianBlur stdDeviation="2"/></filter><path id="agb" d="M23.138 2.7c-2.322-2.045-6.085-2.045-8.406 0l-1.576 1.39-1.577-1.39C9.259.656 5.495.656 3.173 2.7c-2.611 2.302-2.611 6.034 0 8.335l9.983 8.798 9.982-8.797c2.61-2.302 2.61-6.033 0-8.335V2.7z"/></defs><path fill="none" d="M-1-1h4v3.625h-4z"/><g fill="none" fill-rule="evenodd"><g opacity=".3" fill="#000"><use filter="url(#aga)" xlink:href="#agb" y="1" x="3"/><use xlink:href="#agb" y="1" x="3"/></g><path fill="#FFF" fill-rule="nonzero" d="M15.17 3.298c-2.593-2.286-6.779-2.286-9.373 0-2.92 2.573-2.92 6.766 0 9.34l10.567 9.313 10.566-9.313c2.92-2.574 2.92-6.767 0-9.34-2.593-2.286-6.779-2.286-9.373 0l-1.193 1.051-1.194-1.051zm1.194 17.069l-9.746-8.59c-2.394-2.11-2.394-5.51 0-7.62 2.13-1.876 5.602-1.876 7.73 0l1.605 1.414.41.362 2.015-1.776c2.13-1.876 5.602-1.876 7.731 0 2.395 2.111 2.395 5.51 0 7.621l-9.745 8.589z"/></g></svg><view id="bookmarks--heart-filled-active" viewBox="456 248 42 36"/><svg width="42" height="36" viewBox="-5 -5 42 36" x="456" y="248" xmlns="http://www.w3.org/2000/svg"><defs><filter id="aha" width="158.6%" height="175%" x="-29.3%" y="-26.8%" filterUnits="objectBoundingBox"><feOffset dy="2" in="SourceAlpha" result="shadowOffsetOuter1"/><feGaussianBlur in="shadowOffsetOuter1" result="shadowBlurOuter1" stdDeviation="2"/><feColorMatrix in="shadowBlurOuter1" values="0 0 0 0 0 0 0 0 0 0 0 0 0 0 0 0 0 0 0.297554348 0"/></filter><path id="ahb" d="M23.138 2.7c-2.322-2.045-6.085-2.045-8.406 0l-1.576 1.39-1.577-1.39C9.259.656 5.495.656 3.173 2.7c-2.611 2.302-2.611 6.034 0 8.335l9.983 8.798 9.982-8.797c2.61-2.302 2.61-6.033 0-8.335z"/></defs><g fill="none" fill-rule="evenodd"><g opacity=".75" transform="translate(3 1)"><use fill="#000" filter="url(#aha)" xlink:href="#ahb"/><use fill="#FF380D" xlink:href="#ahb"/></g><path fill="#FFF" fill-rule="nonzero" d="M15.17 3.298c-2.593-2.286-6.779-2.286-9.373 0-2.92 2.573-2.92 6.766 0 9.34l10.567 9.313 10.566-9.313c2.92-2.574 2.92-6.767 0-9.34-2.593-2.286-6.779-2.286-9.373 0l-1.193 1.051-1.194-1.051zm1.194 17.069l-9.746-8.59c-2.394-2.11-2.394-5.51 0-7.62 2.13-1.876 5.602-1.876 7.73 0l1.605 1.414.41.362 2.015-1.776c2.13-1.876 5.602-1.876 7.731 0 2.395 2.111 2.395 5.51 0 7.621l-9.745 8.589z"/></g></svg><view id="bookmarks--icon-heart--empty" viewBox="238 372 32 30"/><svg width="32" height="30" fill="none" viewBox="-5 -5 32 30" x="238" y="372" xmlns="http://www.w3.org/2000/svg"><path d="M17.725 2.193a5.204 5.204 0 00-2.593-.693c-1.66 0-3.148.785-4.13 2.016C10.015 2.286 8.529 1.5 6.866 1.5c-.94 0-1.82.253-2.591.693C2.62 3.143 1.5 4.97 1.5 7.07c0 .601.094 1.178.265 1.717.921 4.296 9.237 9.713 9.237 9.713s8.31-5.417 9.232-9.713c.17-.539.266-1.116.266-1.717 0-2.099-1.12-3.926-2.775-4.877z" stroke="#212C3A" stroke-width="2"/></svg><view id="bookmarks--icon-heart--full" viewBox="396 372 30 28"/><svg width="30" height="28" fill="none" viewBox="-5 -5 30 28" x="396" y="372" xmlns="http://www.w3.org/2000/svg"><path d="M16.725 1.193A5.204 5.204 0 0014.132.5c-1.66 0-3.148.785-4.13 2.016C9.015 1.286 7.529.5 5.866.5c-.94 0-1.82.253-2.591.693C1.621 2.143.5 3.97.5 6.07c0 .601.094 1.178.265 1.717.921 4.296 9.237 9.713 9.237 9.713s8.31-5.417 9.232-9.713c.17-.539.266-1.116.266-1.717 0-2.099-1.12-3.926-2.775-4.877z" fill="#CA1016"/></svg><view id="bookmarks--icon-heart--hover" viewBox="270 372 32 30"/><svg width="32" height="30" fill="none" viewBox="-5 -5 32 30" x="270" y="372" xmlns="http://www.w3.org/2000/svg"><path d="M17.725 2.193a5.204 5.204 0 00-2.593-.693c-1.66 0-3.148.785-4.13 2.016C10.015 2.286 8.529 1.5 6.866 1.5c-.94 0-1.82.253-2.591.693C2.62 3.143 1.5 4.97 1.5 7.07c0 .601.094 1.178.265 1.717.921 4.296 9.237 9.713 9.237 9.713s8.31-5.417 9.232-9.713c.17-.539.266-1.116.266-1.717 0-2.099-1.12-3.926-2.775-4.877z" stroke="#CA1016" stroke-width="2"/></svg><view id="bookmarks--red-heart" viewBox="302 372 32 29"/><svg width="32" height="29" viewBox="-5 -5 32 29" x="302" y="372" xmlns="http://www.w3.org/2000/svg"><path d="M18.787.747a6.465 6.465 0 00-3.003-.733c-1.923 0-3.645.831-4.782 2.135C9.859.845 8.139.014 6.213.014a6.469 6.469 0 00-3 .733C1.298 1.753 0 3.688 0 5.912c0 .636.11 1.247.307 1.818 1.066 4.548 10.695 10.284 10.695 10.284s9.622-5.736 10.69-10.284A5.547 5.547 0 0022 5.912c0-2.223-1.298-4.157-3.213-5.165z" fill="#CA1016"/></svg><view id="breadcrumbs" viewBox="64 475 20 25"/><svg width="20" height="25" viewBox="-5 -5 20.94 25.86" x="64" y="475" xmlns="http://www.w3.org/2000/svg"><path fill="#B7B7B7" d="M2 0L0 2l6.938 5.938L0 13.875l2 2 8.938-7.937z"/></svg><view id="breadcrumbs-shops" viewBox="84 475 20 25"/><svg width="20" height="25" viewBox="-5 -5 20.94 25.86" x="84" y="475" xmlns="http://www.w3.org/2000/svg"><path fill="#052a5c" d="M2 0L0 2l6.938 5.938L0 13.875l2 2 8.938-7.937z"/></svg><view id="close" viewBox="417 413 28 28"/><svg width="28" height="28" viewBox="-5 -5 28 28" x="417" y="413" xmlns="http://www.w3.org/2000/svg"><path fill="#FFF" d="M17.812.41c-.221-.222-.575-.222-.774 0L9.56 7.863 1.885.166c-.222-.221-.576-.221-.775 0a.536.536 0 000 .774l7.676 7.698-7.698 7.699c-.221.22-.221.575 0 .774.11.11.244.155.398.155a.533.533 0 00.399-.155l7.698-7.698 7.455 7.455c.11.11.243.154.398.154a.533.533 0 00.398-.154c.221-.222.221-.576 0-.775l-7.477-7.455 7.455-7.455c.2-.22.2-.575 0-.774z"/></svg><view id="delete" viewBox="384 312 24 24"/><svg width="24" height="24" viewBox="-5 -5 24 24" x="384" y="312" xmlns="http://www.w3.org/2000/svg"><path fill="#848484" d="M14 11.776L9.15 6.988l4.783-4.831L11.776 0l-4.79 4.852L2.138.067 0 2.206l4.854 4.806-4.787 4.85L2.206 14 7.01 9.148l4.832 4.785z"/></svg><view id="delete-hover" viewBox="408 312 24 24"/><svg width="24" height="24" viewBox="-5 -5 24 24" x="408" y="312" xmlns="http://www.w3.org/2000/svg"><path fill="#E4002B" d="M14 11.776L9.15 6.988l4.783-4.831L11.776 0l-4.79 4.852L2.138.067 0 2.206l4.854 4.806-4.787 4.85L2.206 14 7.01 9.148l4.832 4.785z"/></svg><view id="edit" viewBox="445 413 28 28"/><svg width="28" height="28" viewBox="-5 -5 28 28" x="445" y="413" xmlns="http://www.w3.org/2000/svg"><path fill="#848484" d="M13.772 6.348l1.075 1.073-9.502 9.502L0 18l1.079-5.345 9.499-9.501 1.073 1.073-9.191 9.168-.545 2.688 2.688-.542 9.168-9.193zM13.73 0l-2.11 2.113 4.268 4.269L18 4.266 13.73 0zM4.492 14.039l8.485-8.488-.53-.53-8.484 8.486.529.532z"/></svg><view id="edit-hover" viewBox="473 413 28 28"/><svg width="28" height="28" viewBox="-5 -5 28 28" x="473" y="413" xmlns="http://www.w3.org/2000/svg"><path fill="#2289F8" d="M13.772 6.348l1.075 1.073-9.502 9.502L0 18l1.079-5.345 9.499-9.501 1.073 1.073-9.191 9.168-.545 2.688 2.688-.542 9.168-9.193zM13.73 0l-2.11 2.113 4.268 4.269L18 4.266 13.73 0zM4.492 14.039l8.485-8.488-.53-.53-8.484 8.486.529.532z"/></svg><view id="email" viewBox="241 196 24 20"/><svg width="24" height="20" viewBox="-5 -5 24 20" x="241" y="196" xmlns="http://www.w3.org/2000/svg"><path d="M.241 9.605c.197.241.498.395.834.395h11.85c.372 0 .7-.19.893-.475L9.29 4.999 7 7 4.81 5.035.242 9.605zM0 8.432V1.07C0 .962.016.858.046.76l4.02 3.606L0 8.432zm14-.14V1.07c0-.058-.005-.116-.014-.172l-3.94 3.441L14 8.293zM.809.034C.894.012.983 0 1.075 0h11.85c.141 0 .276.027.4.077L7 5.7.809.033z" fill="#FFF" fill-rule="evenodd"/></svg><view id="featured-icon" viewBox="265 196 23 20"/><svg viewBox="-5 -5 23 20" width="23" height="20" x="265" y="196" xmlns="http://www.w3.org/2000/svg"><path fill="#FFD351" d="M8.549 4L6.071 0 3.594 4 0 2l1.518 5.5V10h9.107V7.5L12.143 2z"/></svg><view id="follow-button" viewBox="439 443 25 26"/><svg width="25" height="26" viewBox="-5 -5 25 26" x="439" y="443" xmlns="http://www.w3.org/2000/svg"><path d="M4.457.858L4.377.76A2.539 2.539 0 00.75.763 2.63 2.63 0 00.683 4.37 6.518 6.518 0 014.457.858zm9.407.16a2.537 2.537 0 00-3.627 0l-.087.093a6.53 6.53 0 013.78 3.515 2.628 2.628 0 00-.066-3.608zm-1.898 2.496a6.521 6.521 0 00-9.317 0c-2.574 2.61-2.574 6.843 0 9.456l.049.045-1.658 1.684s-.053.613.775.786l1.734-1.759a6.497 6.497 0 003.759 1.203 6.503 6.503 0 003.759-1.203l1.732 1.76c.854.076.776-.787.776-.787l-1.657-1.684c.015-.016.031-.03.048-.045 2.574-2.613 2.574-6.845 0-9.456zm-1.136 8.245c-.023.02-.045.042-.068.064l-.28.281-.357.252a4.864 4.864 0 01-2.817.901 4.86 4.86 0 01-2.815-.9L4.13 12.1l-.276-.277-.067-.063a5.023 5.023 0 01-1.42-3.519c0-1.339.514-2.6 1.446-3.545a4.876 4.876 0 013.495-1.47c1.32 0 2.56.52 3.493 1.47A5.017 5.017 0 0112.25 8.24c0 1.33-.506 2.582-1.42 3.518zM7.98 4.612c0-.38-.306-.69-.682-.69a.687.687 0 00-.683.69v4.484h1.364v-.002l3.053.002a.687.687 0 00.682-.693.687.687 0 00-.682-.692H7.98V4.612z" fill="#C71B24" fill-rule="evenodd"/></svg><view id="follow-button-hover" viewBox="464 443 25 26"/><svg width="25" height="26" viewBox="-5 -5 25 26" x="464" y="443" xmlns="http://www.w3.org/2000/svg"><path d="M4.457.858L4.377.76A2.539 2.539 0 00.75.763 2.63 2.63 0 00.683 4.37 6.518 6.518 0 014.457.858zm9.407.16a2.537 2.537 0 00-3.627 0l-.087.093a6.53 6.53 0 013.78 3.515 2.628 2.628 0 00-.066-3.608zm-1.898 2.496a6.521 6.521 0 00-9.317 0c-2.574 2.61-2.574 6.843 0 9.456l.049.045-1.658 1.684s-.053.613.775.786l1.734-1.759a6.497 6.497 0 003.759 1.203 6.503 6.503 0 003.759-1.203l1.732 1.76c.854.076.776-.787.776-.787l-1.657-1.684c.015-.016.031-.03.048-.045 2.574-2.613 2.574-6.845 0-9.456zm-1.136 8.245c-.023.02-.045.042-.068.064l-.28.281-.357.252a4.864 4.864 0 01-2.817.901 4.86 4.86 0 01-2.815-.9L4.13 12.1l-.276-.277-.067-.063a5.023 5.023 0 01-1.42-3.519c0-1.339.514-2.6 1.446-3.545a4.876 4.876 0 013.495-1.47c1.32 0 2.56.52 3.493 1.47A5.017 5.017 0 0112.25 8.24c0 1.33-.506 2.582-1.42 3.518zM7.98 4.612c0-.38-.306-.69-.682-.69a.687.687 0 00-.683.69v4.484h1.364v-.002l3.053.002a.687.687 0 00.682-.693.687.687 0 00-.682-.692H7.98V4.612z" fill="#fff" fill-rule="evenodd"/></svg><view id="icon-arrow-left--white" viewBox="0 475 20 26"/><svg width="20" height="26" fill="none" viewBox="-5 -5 20 26" y="475" xmlns="http://www.w3.org/2000/svg"><path d="M8.5 15l-7-7 7-7" stroke="#fff" stroke-width="1.5"/></svg><view id="icon-arrow-right--black" viewBox="124 475 18 23"/><svg width="18" height="23" fill="none" viewBox="-5 -5 18 23" x="124" y="475" xmlns="http://www.w3.org/2000/svg"><path d="M1 11.5l5-5-5-5" stroke="#212C3A" stroke-width="2"/></svg><view id="icon-arrow-right--white" viewBox="20 475 20 26"/><svg width="20" height="26" fill="none" viewBox="-5 -5 20 26" x="20" y="475" xmlns="http://www.w3.org/2000/svg"><path d="M1.5 1l7 7-7 7" stroke="#fff" stroke-width="1.5"/></svg><view id="icon-clock--grey" viewBox="339 443 28 28"/><svg width="28" height="28" fill="none" viewBox="-5 -5 28 28" x="339" y="443" xmlns="http://www.w3.org/2000/svg"><path d="M9 0a9 9 0 100 18A9 9 0 009 0zm3.456 11.751a.75.75 0 01-1.044.192L7.95 9.558V5.85a.75.75 0 111.5 0v2.92l2.814 1.937a.75.75 0 01.192 1.044z" fill="#B1B8C6"/></svg><view id="icon-close--white" viewBox="420 239 35 36"/><svg width="35" height="36" fill="none" viewBox="-5 -5 35 36" x="420" y="239" xmlns="http://www.w3.org/2000/svg"><path d="M18.51 6.99L6.49 19.01M18.51 19.01L6.49 6.99" stroke="#fff" stroke-width="1.7"/></svg><view id="icon-heart--empty" viewBox="0 413 32 30"/><svg width="32" height="30" fill="none" viewBox="-5 -5 32 30" y="413" xmlns="http://www.w3.org/2000/svg"><path d="M17.725 2.193a5.204 5.204 0 00-2.593-.693c-1.66 0-3.148.785-4.13 2.016C10.015 2.286 8.529 1.5 6.866 1.5c-.94 0-1.82.253-2.591.693C2.62 3.143 1.5 4.97 1.5 7.07c0 .601.094 1.178.265 1.717.921 4.296 9.237 9.713 9.237 9.713s8.31-5.417 9.232-9.713c.17-.539.266-1.116.266-1.717 0-2.099-1.12-3.926-2.775-4.877z" stroke="#212C3A" stroke-width="1.5"/></svg><view id="icon-heart--hover" viewBox="32 413 32 30"/><svg width="32" height="30" fill="none" viewBox="-5 -5 32 30" x="32" y="413" xmlns="http://www.w3.org/2000/svg"><path d="M17.725 2.193a5.204 5.204 0 00-2.593-.693c-1.66 0-3.148.785-4.13 2.016C10.015 2.286 8.529 1.5 6.866 1.5c-.94 0-1.82.253-2.591.693C2.62 3.143 1.5 4.97 1.5 7.07c0 .601.094 1.178.265 1.717.921 4.296 9.237 9.713 9.237 9.713s8.31-5.417 9.232-9.713c.17-.539.266-1.116.266-1.717 0-2.099-1.12-3.926-2.775-4.877z" stroke="#CA1016" stroke-width="1.5"/></svg><view id="icon-heart--white" viewBox="64 413 32 30"/><svg width="32" height="30" fill="none" viewBox="-5 -5 32 30" x="64" y="413" xmlns="http://www.w3.org/2000/svg"><path d="M17.725 2.193a5.204 5.204 0 00-2.593-.693c-1.66 0-3.148.785-4.13 2.016C10.015 2.286 8.529 1.5 6.866 1.5c-.94 0-1.82.253-2.591.693C2.62 3.143 1.5 4.97 1.5 7.07c0 .601.094 1.178.265 1.717.921 4.296 9.237 9.713 9.237 9.713s8.31-5.417 9.232-9.713c.17-.539.266-1.116.266-1.717 0-2.099-1.12-3.926-2.775-4.877z" stroke="#fff" stroke-width="1.5"/></svg><view id="icon-logo--red" viewBox="456 326 40 40"/><svg width="40" height="40" fill="none" viewBox="-5 -5 40 40" x="456" y="326" xmlns="http://www.w3.org/2000/svg"><rect width="30" height="30" rx="7" fill="#CA1016"/><path fill-rule="evenodd" clip-rule="evenodd" d="M9.668 10.274V7.236h10.664v3.038H16.71v12.548h-3.42V10.274H9.669z" fill="#fff"/></svg><view id="icon-logo--red--hover" viewBox="456 366 40 40"/><svg width="40" height="40" fill="none" viewBox="-5 -5 40 40" x="456" y="366" xmlns="http://www.w3.org/2000/svg"><rect width="30" height="30" rx="7" fill="#B30006"/><path fill-rule="evenodd" clip-rule="evenodd" d="M9.668 10.274V7.236h10.664v3.038H16.71v12.548h-3.42V10.274H9.669z" fill="#fff"/></svg><view id="icon-owner-fallback" viewBox="166 312 60 60"/><svg width="60" height="60" fill="none" viewBox="-5 -5 60 60" x="166" y="312" xmlns="http://www.w3.org/2000/svg"><path fill-rule="evenodd" clip-rule="evenodd" d="M25 0C11.194 0 0 11.193 0 25s11.193 25 25 25c13.808 0 25-11.193 25-25S38.808 0 25 0zm0 7.476a8.27 8.27 0 110 16.539 8.27 8.27 0 010-16.54zM13.047 39.058a18.347 18.347 0 0011.947 4.406 18.34 18.34 0 0011.95-4.407 3.516 3.516 0 001.235-2.678c0-4.63-3.734-8.337-8.367-8.337H20.19c-4.632 0-8.38 3.706-8.38 8.337 0 1.03.453 2.01 1.237 2.679z" fill="#fff"/></svg><view id="icon-phone--green" viewBox="330 413 29 28"/><svg width="29" height="28" fill="none" viewBox="-5 -5 29 28" x="330" y="413" xmlns="http://www.w3.org/2000/svg"><path fill-rule="evenodd" clip-rule="evenodd" d="M14.625 11.515l3.31 1.84c.476.263.684.823.497 1.333-.95 2.593-3.73 3.962-6.345 3.007C6.73 15.74 2.76 11.77.805 6.413-.15 3.797 1.219 1.017 3.812.068c.51-.187 1.07.021 1.334.496.612 1.104 1.226 2.208 1.839 3.31.287.518.22 1.133-.174 1.575L5.266 7.187c1.1 2.678 3.369 4.947 6.047 6.047l1.738-1.545a1.349 1.349 0 011.574-.174z" fill="#3DB460"/></svg><view id="icon-phone--red" viewBox="359 413 29 28"/><svg width="29" height="28" fill="none" viewBox="-5 -5 29 28" x="359" y="413" xmlns="http://www.w3.org/2000/svg"><path fill-rule="evenodd" clip-rule="evenodd" d="M14.625 11.515l3.31 1.84c.476.263.684.823.497 1.333-.95 2.593-3.73 3.962-6.345 3.007C6.73 15.74 2.76 11.77.805 6.413-.15 3.797 1.219 1.017 3.812.068c.51-.187 1.07.021 1.334.496.612 1.104 1.226 2.208 1.839 3.31.287.518.22 1.133-.174 1.575L5.266 7.187c1.1 2.678 3.369 4.947 6.047 6.047l1.738-1.545a1.349 1.349 0 011.574-.174z" fill="#CA1016"/></svg><view id="icon-phone--white" viewBox="388 413 29 28"/><svg width="29" height="28" fill="none" viewBox="-5 -5 29 28" x="388" y="413" xmlns="http://www.w3.org/2000/svg"><path fill-rule="evenodd" clip-rule="evenodd" d="M14.625 11.515l3.31 1.84c.476.263.684.823.497 1.333-.95 2.593-3.73 3.962-6.345 3.007C6.73 15.74 2.76 11.77.805 6.413-.15 3.797 1.219 1.017 3.812.068c.51-.187 1.07.021 1.334.496.612 1.104 1.226 2.208 1.839 3.31.287.518.22 1.133-.174 1.575L5.266 7.187c1.1 2.678 3.369 4.947 6.047 6.047l1.738-1.545a1.349 1.349 0 011.574-.174z" fill="#fff"/></svg><view id="icon-pin--grey" viewBox="367 443 24 28"/><svg width="24" height="28" fill="none" viewBox="-5 -5 24 28" x="367" y="443" xmlns="http://www.w3.org/2000/svg"><path fill-rule="evenodd" clip-rule="evenodd" d="M8.262 17.344c1.89-2.592 5.238-7.62 5.238-10.72C13.5 2.966 10.59 0 7 0S.5 2.966.5 6.624c0 3.1 3.347 8.128 5.238 10.72a1.543 1.543 0 002.524 0zM7 9.216c1.405 0 2.543-1.16 2.543-2.592 0-1.432-1.138-2.592-2.543-2.592-1.405 0-2.543 1.16-2.543 2.592 0 1.431 1.138 2.592 2.543 2.592z" fill="#B1B8C6"/></svg><view id="icon-report--full" viewBox="312 443 27 29"/><svg width="27" height="29" fill="none" viewBox="-5 -5 27 29" x="312" y="443" xmlns="http://www.w3.org/2000/svg"><path fill="#F0F0F0" d="M0 0h17v19H0z"/><g clip-path="url(#bmclip0_1581_42673)"><path fill="#fff" d="M-1071-171H369V853h-1440z"/><path fill="#fff" d="M-1071-21H369v60h-1440z"/><path d="M12.526 1.727C9.842 1.727 7.158 0 4.474 0 1.789 0 0 .864 0 .864v17.272c0 .23.094.45.262.611A.911.911 0 00.895 19a.911.911 0 00.632-.253.848.848 0 00.262-.61v-5.754c.88-.194 1.781-.292 2.685-.292 2.684 0 5.368 1.727 8.052 1.727 2.684 0 4.474-.864 4.474-.864V.864s-1.79.863-4.474.863zm2.684 10.017c-.871.234-1.78.347-2.684.347-1.308 0-2.585-.496-3.808-.887-1.374-.439-2.784-.84-4.244-.84-.901 0-1.8.084-2.685.253V2.074c.872-.233 1.78-.347 2.685-.347 1.308 0 2.585.496 3.808.887 1.374.439 2.784.84 4.244.84.902 0 1.8-.084 2.684-.253v8.543z" fill="#212C3A"/><path d="M0 2L4 .5 8.5 2H17v10l-4 .5-4.5-.5-4.25-1H0V2z" fill="#212C3A"/></g><defs><clipPath id="bmclip0_1581_42673"><path fill="#fff" transform="translate(-1071 -171)" d="M0 0h1440v1024H0z"/></clipPath></defs></svg><view id="icon-report--red" viewBox="158 413 28 30"/><svg width="28" height="30" fill="none" viewBox="-5 -5 28 30" x="158" y="413" xmlns="http://www.w3.org/2000/svg"><path d="M13.026 2.227C10.342 2.227 7.658.5 4.974.5 2.289.5.5 1.364.5 1.364v17.272c0 .23.094.45.262.611a.911.911 0 00.633.253.911.911 0 00.632-.253.848.848 0 00.262-.61v-5.754c.88-.194 1.781-.292 2.685-.292 2.684 0 5.368 1.727 8.052 1.727 2.684 0 4.474-.864 4.474-.864V1.364s-1.79.863-4.474.863zm2.684 10.017c-.871.234-1.78.347-2.684.347-1.308 0-2.585-.496-3.808-.887-1.374-.439-2.784-.84-4.244-.84-.901 0-1.8.084-2.685.253V2.574c.872-.233 1.78-.347 2.685-.347 1.308 0 2.585.496 3.808.887 1.374.439 2.784.84 4.244.84.902 0 1.8-.084 2.684-.253v8.543z" fill="#FF586D"/></svg><view id="icon-report--white" viewBox="186 413 28 30"/><svg width="28" height="30" fill="none" viewBox="-5 -5 28 30" x="186" y="413" xmlns="http://www.w3.org/2000/svg"><path d="M13.026 2.227C10.342 2.227 7.658.5 4.974.5 2.289.5.5 1.364.5 1.364v17.272c0 .23.094.45.262.611a.911.911 0 00.633.253.911.911 0 00.632-.253.848.848 0 00.262-.61v-5.754c.88-.194 1.781-.292 2.685-.292 2.684 0 5.368 1.727 8.052 1.727 2.684 0 4.474-.864 4.474-.864V1.364s-1.79.863-4.474.863zm2.684 10.017c-.871.234-1.78.347-2.684.347-1.308 0-2.585-.496-3.808-.887-1.374-.439-2.784-.84-4.244-.84-.901 0-1.8.084-2.685.253V2.574c.872-.233 1.78-.347 2.685-.347 1.308 0 2.585.496 3.808.887 1.374.439 2.784.84 4.244.84.902 0 1.8-.084 2.684-.253v8.543z" fill="#212C3A"/></svg><view id="icon-user" viewBox="456 284 42 42"/><svg width="42" height="42" viewBox="-5 -5 42 42" x="456" y="284" xmlns="http://www.w3.org/2000/svg"><g fill="#fff"><path d="M23.305 7.305A7.304 7.304 0 0116 14.609a7.304 7.304 0 01-7.305-7.304A7.304 7.304 0 0116 0a7.304 7.304 0 017.305 7.305zm0 0M16 18.781C8.7 18.781 2.781 24.7 2.781 32H29.22c0-7.3-5.918-13.219-13.219-13.219zm0 0"/></g></svg><view id="icon-warning--red" viewBox="261 338 34 32"/><svg width="34" height="32" fill="none" viewBox="-5 -5 34 32" x="261" y="338" xmlns="http://www.w3.org/2000/svg"><path d="M22.634 16.995L13.973 2.287A2.518 2.518 0 0011.769 1c-.916 0-1.74.477-2.217 1.3L1.366 16.995a2.694 2.694 0 00-.026 2.665c.464.836 1.302 1.34 2.243 1.34h16.834c.94 0 1.779-.504 2.243-1.34a2.694 2.694 0 00-.026-2.665z" stroke="#FF586D"/><path d="M13 17c0 .55-.45 1-1 1s-1-.45-1-1 .45-1 1-1 1 .45 1 1z" fill="#FF586D"/><path d="M12 13.801v-8" stroke="#FF586D" stroke-width="1.5" stroke-linecap="round" stroke-linejoin="round"/></svg><view id="icon-zoom--white" viewBox="432 312 24 24"/><svg width="24" height="24" fill="none" viewBox="-5 -5 24 24" x="432" y="312" xmlns="http://www.w3.org/2000/svg"><path d="M7 1h6v6M7 13H1V7M1 13L13 1" stroke="#fff" stroke-width="1.3"/></svg><view id="label-new-az" viewBox="456 100 47 23"/><svg width="47" height="23" viewBox="-5 -5 47 23" x="456" y="100" xmlns="http://www.w3.org/2000/svg"><g fill="none" fill-rule="evenodd"><path fill="#459CF9" d="M.3 0H37v13H.3z"/><path fill="#FFF" d="M9.96 7.67L7.3 3.62h1.58l1.74 2.82 1.76-2.82h1.5l-2.66 4.05v3.03H9.96V7.67zm4.57-4.05h4.69v1.14h-3.43V6.5h3.25v1.14h-3.25v1.92h3.61v1.14h-4.87V3.62zm6.11 0h1.67l3.43 5.26h.02V3.62h1.26v7.08h-1.6l-3.5-5.43h-.02v5.43h-1.26V3.62zm7.93 0h1.26v7.08h-1.26V3.62zm-.13-1.2c0-.193.072-.362.215-.505A.739.739 0 0129.2 1.7c.22 0 .405.068.555.205.15.137.225.308.225.515a.667.667 0 01-.225.515.794.794 0 01-.555.205.739.739 0 01-.545-.215.691.691 0 01-.215-.505z"/></g></svg><view id="label-new-ru" viewBox="154 196 60 23"/><svg width="60" height="23" viewBox="-5 -5 60 23" x="154" y="196" xmlns="http://www.w3.org/2000/svg"><g fill="none" fill-rule="evenodd"><path fill="#459CF9" d="M0 0h50v13H0z"/><path fill="#FFF" d="M7 3.191h1.328V6.05h3.22V3.19h1.318v7.124h-1.318v-3.14h-3.22v3.14H7V3.19zm14.78 3.542c0 .557-.095 1.066-.286 1.53a3.54 3.54 0 01-.795 1.191 3.59 3.59 0 01-1.208.775 4.107 4.107 0 01-1.524.277 4.079 4.079 0 01-1.514-.277 3.645 3.645 0 01-1.213-.775 3.503 3.503 0 01-.8-1.192 3.968 3.968 0 01-.286-1.53c0-.556.095-1.064.286-1.524a3.41 3.41 0 01.8-1.177 3.662 3.662 0 011.213-.76c.466-.18.97-.271 1.514-.271.55 0 1.058.09 1.524.272a3.444 3.444 0 012.002 1.937c.192.459.287.967.287 1.524zm-1.408 0c0-.349-.057-.68-.171-.991a2.42 2.42 0 00-.483-.81 2.277 2.277 0 00-.76-.544 2.39 2.39 0 00-.991-.2 2.29 2.29 0 00-1.74.745 2.42 2.42 0 00-.484.809 2.863 2.863 0 00-.17.99c0 .363.056.7.17 1.012.114.312.275.584.483.815.208.231.46.412.755.543.295.131.624.196.986.196s.69-.065.986-.196a2.25 2.25 0 00.76-.543c.211-.231.374-.503.488-.815.114-.312.17-.649.17-1.011zm2.696-3.542h2.556c.275 0 .553.029.835.086.282.057.537.154.765.291.228.138.414.324.558.559.144.235.216.533.216.895 0 .383-.11.708-.332.976a1.687 1.687 0 01-.875.554v.02c.215.033.414.095.599.186.184.09.345.208.483.352.137.144.244.315.322.513a1.8 1.8 0 01.115.66c0 .355-.07.66-.211.915-.14.255-.334.464-.579.629-.244.164-.53.286-.855.367-.325.08-.672.12-1.041.12h-2.556V3.192zm1.288 2.948h1.137c.168 0 .325-.018.473-.055.147-.037.277-.094.387-.171a.827.827 0 00.262-.297.939.939 0 00.095-.443c0-.322-.122-.555-.367-.699-.245-.144-.568-.216-.97-.216h-1.017v1.881zm0 3.09h1.117c.188 0 .372-.018.553-.051.181-.034.342-.09.483-.171a.965.965 0 00.342-.327.93.93 0 00.131-.508c0-.37-.129-.634-.387-.795-.259-.161-.616-.242-1.072-.242h-1.167v2.093zm12.557-2.496c0 .557-.096 1.066-.287 1.53a3.54 3.54 0 01-.795 1.191 3.59 3.59 0 01-1.207.775 4.107 4.107 0 01-1.525.277 4.079 4.079 0 01-1.514-.277 3.645 3.645 0 01-1.212-.775 3.503 3.503 0 01-.8-1.192 3.968 3.968 0 01-.287-1.53c0-.556.096-1.064.287-1.524a3.41 3.41 0 01.8-1.177 3.662 3.662 0 011.212-.76c.466-.18.971-.271 1.514-.271.55 0 1.059.09 1.525.272a3.444 3.444 0 012.002 1.937c.191.459.287.967.287 1.524zm-1.409 0c0-.349-.057-.68-.17-.991a2.42 2.42 0 00-.484-.81 2.277 2.277 0 00-.76-.544 2.39 2.39 0 00-.99-.2 2.29 2.29 0 00-1.74.745 2.42 2.42 0 00-.484.809 2.863 2.863 0 00-.171.99c0 .363.057.7.17 1.012.115.312.276.584.484.815.208.231.46.412.754.543.296.131.624.196.986.196.363 0 .691-.065.987-.196a2.25 2.25 0 00.76-.543c.21-.231.373-.503.487-.815.114-.312.171-.649.171-1.011zm3.985 2.445H43v1.137h-4.8V3.19h4.65v1.137h-3.361V6.11h3.159v1.077h-3.16v1.992z"/></g></svg><view id="loan" viewBox="279 312 28 25"/><svg width="28" height="25" viewBox="-5 -5 26 25" x="279" y="312" xmlns="http://www.w3.org/2000/svg"><path d="M4.962 5.28c.273-.272.41-.6.41-.988a1.35 1.35 0 00-.41-.99 1.347 1.347 0 00-.988-.407c-.387 0-.717.136-.99.408a1.35 1.35 0 00-.408.99c0 .386.136.715.41.988.27.273.6.41.988.41.386 0 .716-.137.988-.41zM6.29 6.605a3.146 3.146 0 01-2.316.958 3.15 3.15 0 01-2.312-.958 3.15 3.15 0 01-.958-2.312c0-.902.32-1.673.958-2.312a3.15 3.15 0 012.312-.958c.902 0 1.672.32 2.31.958.64.64.96 1.41.96 2.312 0 .902-.32 1.673-.954 2.312zm7.215 3.098a1.347 1.347 0 00-.988-.41 1.35 1.35 0 00-.99.41 1.347 1.347 0 00-.408.988c0 .387.135.717.408.99.272.272.602.408.99.408.385 0 .715-.136.987-.41.273-.27.41-.6.41-.988 0-.386-.137-.716-.41-.988zm1.323 3.3a3.15 3.15 0 01-2.31.958 3.15 3.15 0 01-2.313-.958 3.15 3.15 0 01-.958-2.312c0-.908.32-1.68.958-2.315a3.157 3.157 0 012.312-.954c.902 0 1.672.32 2.31.96.64.638.96 1.408.96 2.31a3.15 3.15 0 01-.96 2.312zM11.118.962h1.337l-7.1 13.077H3.99L11.12.96z" fill="#FFF" fill-rule="evenodd"/></svg><view id="logo" viewBox="0 196 154 43"/><svg width="154" height="43" viewBox="-5 -5 154 43" y="196" xmlns="http://www.w3.org/2000/svg"><path d="M18.203.38v6.327H13.32V32H5.098V6.707H.234V.38h17.97zm20.557 5.7V32h-8.026l.137-2.148c-.546.872-1.22 1.526-2.02 1.962-.802.437-1.723.655-2.765.655-1.184 0-2.168-.21-2.95-.626-.78-.417-1.356-.97-1.727-1.66a6.074 6.074 0 01-.694-2.16c-.09-.747-.136-2.235-.136-4.462V6.082h7.89V23.72c0 2.017.062 3.215.186 3.593.123.377.46.566 1.006.566.586 0 .934-.196 1.045-.587.11-.39.166-1.647.166-3.77V6.083h7.89zm11.575 0l-.313 3.398c1.146-2.434 2.806-3.723 4.98-3.867v9.12c-1.444 0-2.506.197-3.183.587-.678.39-1.094.935-1.25 1.63-.157.698-.235 2.303-.235 4.816V32h-7.89V6.082h7.89zM65.502.38v7.48c.65-.756 1.377-1.32 2.178-1.69a6.14 6.14 0 012.608-.557c1.08 0 2.018.17 2.812.508.794.34 1.4.815 1.816 1.427.417.612.668 1.21.752 1.797.085.586.127 1.836.127 3.75v11.68c0 1.9-.127 3.316-.38 4.247-.254.932-.85 1.74-1.788 2.423-.937.684-2.05 1.026-3.34 1.026a5.67 5.67 0 01-2.587-.607c-.8-.403-1.534-1.01-2.198-1.816L64.995 32h-7.383V.38h7.89zm2.403 13.065c0-1.34-.085-2.216-.254-2.627-.168-.41-.5-.615-.995-.615-.482 0-.795.18-.938.537-.143.358-.215 1.26-.215 2.705v11.172c0 1.393.082 2.285.245 2.676.162.39.485.586.966.586.495 0 .817-.203.967-.607.15-.403.225-1.373.225-2.91V13.445zm29.19 1.74v6.346c0 2.332-.117 4.04-.35 5.128-.235 1.087-.737 2.103-1.505 3.047-.768.944-1.754 1.64-2.96 2.09-1.203.45-2.587.674-4.15.674-1.744 0-3.222-.193-4.433-.577-1.21-.385-2.15-.964-2.822-1.74-.67-.773-1.15-1.71-1.436-2.81-.287-1.1-.43-2.752-.43-4.952v-6.64c0-2.41.26-4.29.78-5.645.522-1.354 1.46-2.44 2.813-3.26 1.355-.822 3.086-1.232 5.196-1.232 1.77 0 3.29.264 4.56.79 1.27.53 2.25 1.215 2.94 2.062.69.846 1.16 1.72 1.415 2.617.254.898.38 2.266.38 4.102zm-7.89-1.955c0-1.328-.072-2.164-.215-2.51-.143-.344-.45-.517-.918-.517-.47 0-.78.173-.937.518-.157.346-.235 1.182-.235 2.51v11.7c0 1.224.078 2.02.235 2.392.156.37.462.557.918.557.468 0 .778-.17.927-.51.15-.337.225-1.067.225-2.186V13.23zm16.593 12.325V32H99.84v-6.445h5.958zM123.212.38L127.92 32h-8.42l-.41-5.684h-2.948l-.49 5.684h-8.514l4.18-31.62h11.894zm-4.356 20.33c-.416-3.58-.833-8-1.25-13.26-.833 6.04-1.354 10.46-1.562 13.26h2.812zm24.367-14.628v5.742l-5.82 14.98h5.82V32h-13.457v-5.43l5.957-15.293h-5.35V6.082h12.85z" fill="#FFF" fill-rule="evenodd"/></svg><view id="phone" viewBox="40 475 24 26"/><svg width="24" height="26" viewBox="-5 -5 24 26" x="40" y="475" xmlns="http://www.w3.org/2000/svg"><path d="M4.282 10.62c-.696-.902-2.317-2.612-2.917-4.427-.74-2.238-.767-2.94-.659-3.708.108-.768.334-1.02.552-1.128.218-.107 1.823-.915 1.823-.915s.396-.222.637.437c.193.525 1.175 2.596 1.175 2.596s.28.298.278.699c0 .299-.353.61-.588.796-.49.385-.617.406-.7.99-.081.583 1.091 2.374 1.43 2.834.338.459.298.456.66.896.43.522 1.55 1.891 2.12 1.792.522-.092.718-.067 1.244-.507.438-.366 1.154-.014 1.43.28.277.294 1.748 1.407 2.16 1.776.412.37.313.865.313.865l-1.288 1.478c-.161.184-.538.315-1.29.21-.75-.106-1.522-.208-3.297-1.72a21.238 21.238 0 01-3.083-3.244" fill="#FFF" fill-rule="evenodd"/></svg><view id="plus" viewBox="456 0 50 50"/><svg width="50" height="50" viewBox="-5 -5 50 50" x="456" xmlns="http://www.w3.org/2000/svg"><path fill="#3576FB" d="M20 0C8.953 0 0 8.954 0 19.998c0 11.045 8.953 20 20 20 11.046 0 20-8.955 20-20C40 8.954 31.046 0 20 0zm11.265 22.368h-8.692v8.915c0 1.431-1.179 2.595-2.61 2.595-1.43 0-2.61-1.163-2.61-2.595v-8.915H8.697c-1.43 0-2.596-1.179-2.596-2.61 0-1.43 1.164-2.61 2.596-2.61h8.656V8.714c0-1.43 1.18-2.595 2.61-2.595 1.431 0 2.61 1.164 2.61 2.595v8.434h8.692c1.431 0 2.596 1.18 2.596 2.61 0 1.431-1.165 2.61-2.596 2.61z"/></svg><view id="product_phone" viewBox="456 123 45 45"/><svg width="45" height="45" viewBox="-5 -5 45 45" x="456" y="123" xmlns="http://www.w3.org/2000/svg"><path d="M33.056 24.306c-2.334 0-4.667-.39-7-1.167-.584-.196-1.362 0-1.945.388l-4.277 4.278C14.39 25.083 9.917 20.416 7 14.972l4.278-4.278c.583-.583.778-1.36.39-1.944-.585-2.14-.974-4.472-.974-6.806C10.694.778 9.917 0 8.75 0H1.944C.778 0 0 .778 0 1.944 0 20.222 14.778 35 33.056 35 34.222 35 35 34.222 35 33.056V26.25c0-1.167-.778-1.944-1.944-1.944z" fill="#C71B25" fill-rule="evenodd"/></svg><view id="profiles--car" viewBox="327 338 32 27"/><svg width="32" height="27" viewBox="-5 -5 32 27" x="327" y="338" xmlns="http://www.w3.org/2000/svg"><path fill="#2289F8" d="M6.263 10.29a1.343 1.343 0 10-2.685 0 1.343 1.343 0 002.685 0zm8.053.894c0-.247-.2-.447-.448-.447H7.605a.448.448 0 000 .895h6.263c.247 0 .448-.2.448-.448zm3.579-.895a1.343 1.343 0 10-2.685.001 1.343 1.343 0 002.685 0zM2.418 4.474H.448c-.248 0-.448.2-.448.447v.457c0 .71.829.885 1.446.885l.972-1.79zm17.284 2.834c-.68-1.264-1.52-2.836-2.401-4.305-.704-1.174-1.226-1.734-2.462-1.957-1.248-.224-2.399-.31-4.102-.31-1.704 0-2.854.086-4.103.31-1.235.222-1.758.783-2.46 1.957-.879 1.464-1.713 3.026-2.402 4.305-.615 1.14-.877 2.158-.877 3.406 0 1.179.376 2.16.894 3.415v1.976c0 .494.401.895.895.895h1.342c.494 0 .895-.4.895-.895v-.894h11.632v.894c0 .494.4.895.894.895h1.342c.494 0 .895-.4.895-.895V14.13c.52-1.256.895-2.236.895-3.415 0-1.248-.262-2.267-.877-3.406zM5.708 3.923c.599-1 .762-1.029 1.243-1.115 1.135-.203 2.197-.283 3.786-.283s2.65.079 3.785.283c.482.086.645.115 1.244 1.115.365.609.725 1.241 1.07 1.861-1.303.197-3.597.48-6.1.48-2.726 0-4.935-.301-6.088-.497.342-.614.697-1.24 1.06-1.844zm10.374 9.498H5.392a2.707 2.707 0 01-2.708-2.707c0-1.469.453-2.167 1.06-3.291.931.183 3.549.63 6.993.63 3.114 0 5.87-.407 7.01-.602.593 1.102 1.042 1.799 1.042 3.263a2.707 2.707 0 01-2.707 2.707zm4.944-8.947c.247 0 .448.2.448.447v.457c0 .71-.829.885-1.446.885l-.972-1.79h1.97z"/></svg><view id="profiles--items" viewBox="96 413 31 30"/><svg width="31" height="30" viewBox="-5 -5 31 30" x="96" y="413" xmlns="http://www.w3.org/2000/svg"><path fill="#868686" d="M20.766 12.403l-3.84-11.365A1.501 1.501 0 0015.516 0c-.169 0-.336.03-.495.087L4.061 4.068a1.51 1.51 0 00-.85.788H2.45c-.825 0-1.496.696-1.496 1.55V18.45c0 .855.67 1.551 1.496 1.551h11.612c.825 0 1.495-.696 1.495-1.55V15.94l4.293-1.56a1.51 1.51 0 00.853-.791 1.59 1.59 0 00.063-1.185zm-6.747 6.002H2.492v-1.67h11.527v1.67zm0-3.598v.334H2.492v-8.69h11.527v8.356zm-7.474-9.95l8.944-3.25 2.854 8.447-2.786.994V6.407c0-.855-.67-1.55-1.496-1.55H6.545zm9.012 9.391v-1.514l3.294-1.176.45 1.33-3.744 1.36z"/></svg><view id="profiles--items-active" viewBox="127 413 31 30"/><svg width="31" height="30" viewBox="-5 -5 31 30" x="127" y="413" xmlns="http://www.w3.org/2000/svg"><path fill="#AE050A" d="M20.766 12.403l-3.84-11.365A1.501 1.501 0 0015.516 0c-.169 0-.336.03-.495.087L4.061 4.068a1.51 1.51 0 00-.85.788H2.45c-.825 0-1.496.696-1.496 1.55V18.45c0 .855.67 1.551 1.496 1.551h11.612c.825 0 1.495-.696 1.495-1.55V15.94l4.293-1.56a1.51 1.51 0 00.853-.791 1.59 1.59 0 00.063-1.185zm-6.747 6.002H2.492v-1.67h11.527v1.67zm0-3.598v.334H2.492v-8.69h11.527v8.356zm-7.474-9.95l8.944-3.25 2.854 8.447-2.786.994V6.407c0-.855-.67-1.55-1.496-1.55H6.545zm9.012 9.391v-1.514l3.294-1.176.45 1.33-3.744 1.36z"/></svg><view id="profiles--my-profile" viewBox="0 443 31 32"/><svg width="31" height="32" viewBox="-5 -5 31 32" y="443" xmlns="http://www.w3.org/2000/svg"><path fill="#868686" stroke="#868686" stroke-width=".4" d="M20.246 1h-4.713a.527.527 0 00-.524.526v8.895h-3.665V6.79a.527.527 0 00-.523-.526H6.108a.527.527 0 00-.524.526v8.132H1.395a.527.527 0 00-.523.526v5.027c0 .29.235.526.523.526h18.85a.527.527 0 00.524-.526V1.526A.527.527 0 0020.246 1zM5.584 19.947H1.92v-3.973h3.665v3.973zm4.713 0H6.632V7.316h3.665v12.631zm4.712 0h-3.665v-8.473h3.665v8.473zm4.713 0h-3.665V2.053h3.665v17.894z"/></svg><view id="profiles--my-profile-active" viewBox="31 443 31 32"/><svg width="31" height="32" viewBox="-5 -5 31 32" x="31" y="443" xmlns="http://www.w3.org/2000/svg"><path fill="#AE050A" stroke="#AE050A" stroke-width=".4" d="M20.246 1h-4.713a.527.527 0 00-.524.526v8.895h-3.665V6.79a.527.527 0 00-.523-.526H6.108a.527.527 0 00-.524.526v8.132H1.395a.527.527 0 00-.523.526v5.027c0 .29.235.526.523.526h18.85a.527.527 0 00.524-.526V1.526A.527.527 0 0020.246 1zM5.584 19.947H1.92v-3.973h3.665v3.973zm4.713 0H6.632V7.316h3.665v12.631zm4.712 0h-3.665v-8.473h3.665v8.473zm4.713 0h-3.665V2.053h3.665v17.894z"/></svg><view id="profiles--next-page" viewBox="0 0 114 196"/><svg width="114" height="196" viewBox="-5 -5 114 196" xmlns="http://www.w3.org/2000/svg"><path fill="none" d="M-1-1h106v188H-1z"/><path fill="#4886ff" d="M11.036 185.672a10.692 10.692 0 01-7.593-3.15 10.724 10.724 0 010-15.174L77.795 93 3.443 18.649c-4.194-4.194-4.194-10.987 0-15.175 4.194-4.194 10.987-4.194 15.18 0l81.934 81.934c4.194 4.194 4.194 10.987 0 15.175l-81.934 81.939a10.678 10.678 0 01-7.587 3.15z"/></svg><view id="profiles--next-page-hover" viewBox="114 0 114 196"/><svg width="114" height="196" viewBox="-5 -5 114 196" x="114" xmlns="http://www.w3.org/2000/svg"><path fill="none" d="M-1-1h106v188H-1z"/><path fill="#fff" d="M11.036 185.672a10.692 10.692 0 01-7.593-3.15 10.724 10.724 0 010-15.174L77.795 93 3.443 18.649c-4.194-4.194-4.194-10.987 0-15.175 4.194-4.194 10.987-4.194 15.18 0l81.934 81.934c4.194 4.194 4.194 10.987 0 15.175l-81.934 81.939a10.678 10.678 0 01-7.587 3.15z"/></svg><view id="profiles--prev-page" viewBox="228 0 114 196"/><svg width="114" height="196" viewBox="-5 -5 114 196" x="228" xmlns="http://www.w3.org/2000/svg"><path fill="none" d="M-1-1h106v188H-1z"/><path d="M92.964.328a10.692 10.692 0 017.593 3.15 10.724 10.724 0 010 15.174L26.205 93l74.352 74.352c4.194 4.194 4.194 10.987 0 15.175-4.194 4.194-10.987 4.194-15.18 0L3.443 100.592c-4.194-4.194-4.194-10.987 0-15.175L85.377 3.478a10.678 10.678 0 017.587-3.15z" fill="#4886ff"/></svg><view id="profiles--prev-page-hover" viewBox="342 0 114 196"/><svg width="114" height="196" viewBox="-5 -5 114 196" x="342" xmlns="http://www.w3.org/2000/svg"><path fill="none" d="M-1-1h106v188H-1z"/><path d="M92.964.328a10.692 10.692 0 017.593 3.15 10.724 10.724 0 010 15.174L26.205 93l74.352 74.352c4.194 4.194 4.194 10.987 0 15.175-4.194 4.194-10.987 4.194-15.18 0L3.443 100.592c-4.194-4.194-4.194-10.987 0-15.175L85.377 3.478a10.678 10.678 0 017.587-3.15z" fill="#fff"/></svg><view id="profiles--shop" viewBox="62 443 31 32"/><svg width="31" height="32" viewBox="-5 -5 31 32" x="62" y="443" xmlns="http://www.w3.org/2000/svg"><path fill="#868686" stroke="#BCBCBC" stroke-width=".2" d="M20.702 7.684l-.034-.12s-.017-.034-.017-.051L18.508 1.53a.702.702 0 00-.663-.462H4.104a.719.719 0 00-.663.462L1.315 7.479c-.017.034-.017.068-.034.102l-.068.205c-.017.052-.034.103-.034.171a2.71 2.71 0 00-.102.718c0 1.3.816 2.41 1.972 2.82v8.753c0 .393.307.7.698.7H18.49a.691.691 0 00.697-.7v-8.872c1.004-.496 1.701-1.521 1.701-2.7a2.96 2.96 0 00-.085-.65 1.007 1.007 0 00-.102-.342zm-2.925 11.863H4.444V11.65c.034 0 .085-.018.119-.018a2.992 2.992 0 001.82-1.042 2.954 2.954 0 002.296 1.077 3.01 3.01 0 002.295-1.077 2.954 2.954 0 002.296 1.077 3.01 3.01 0 002.296-1.077c.391.478.918.82 1.53.974.018 0 .035.017.052.017.068.017.136.034.22.051.035 0 .086.018.12.018.05 0 .119.017.17.017.034 0 .085.017.119.017v7.863zm.544-9.333c-.017 0-.017 0 0 0-.085.017-.153.034-.221.051-.068.017-.153.017-.221.017-.102 0-.204-.017-.306-.034-.085-.017-.17-.051-.238-.069-.017 0-.017 0-.034-.017a1.64 1.64 0 01-1.004-1.367v-.121a.69.69 0 00-.697-.7.691.691 0 00-.697.7c0 .034 0 .069-.017.103v.017a1.617 1.617 0 01-1.004 1.367c-.017 0-.017 0-.034.017-.085.035-.17.052-.255.069a1.865 1.865 0 01-.306.034c-.102 0-.204-.017-.306-.034-.085-.017-.17-.051-.238-.069-.017 0-.017 0-.034-.017a1.64 1.64 0 01-1.003-1.367V8.76c0-.035-.017-.052-.017-.086a.69.69 0 00-.698-.7.691.691 0 00-.697.7c0 .034 0 .069-.017.103v.017a1.617 1.617 0 01-1.003 1.367c-.017 0-.017 0-.034.017-.085.035-.17.052-.255.069-.102.017-.204.034-.306.034-.103 0-.205-.017-.307-.034-.085-.017-.17-.051-.255-.069-.017 0-.017 0-.034-.017A1.64 1.64 0 017.08 8.795v-.121a.69.69 0 00-.697-.7.691.691 0 00-.698.7c0 .034 0 .069-.017.103v.017a1.617 1.617 0 01-1.003 1.367c-.017 0-.017 0-.034.017a1.248 1.248 0 01-.238.069c-.102.017-.204.034-.306.034-.051 0-.12-.017-.17-.017-.017 0-.034 0-.068-.017h-.051a1.614 1.614 0 01-1.327-1.59c0-.137.017-.273.068-.444 0-.017.017-.052.017-.069l2.041-5.692h12.755l1.99 5.556s.016.034.016.05l.035.103c0 .017.017.052.017.069.05.17.068.307.068.444 0 .718-.494 1.334-1.157 1.539z"/></svg><view id="profiles--shop-active" viewBox="93 443 31 32"/><svg width="31" height="32" viewBox="-5 -5 31 32" x="93" y="443" xmlns="http://www.w3.org/2000/svg"><path fill="#AE050A" stroke="#AE050A" stroke-width=".2" d="M20.702 7.684l-.034-.12s-.017-.034-.017-.051L18.508 1.53a.702.702 0 00-.663-.462H4.104a.719.719 0 00-.663.462L1.315 7.479c-.017.034-.017.068-.034.102l-.068.205c-.017.052-.034.103-.034.171a2.71 2.71 0 00-.102.718c0 1.3.816 2.41 1.972 2.82v8.753c0 .393.307.7.698.7H18.49a.691.691 0 00.697-.7v-8.872c1.004-.496 1.701-1.521 1.701-2.7a2.96 2.96 0 00-.085-.65 1.007 1.007 0 00-.102-.342zm-2.925 11.863H4.444V11.65c.034 0 .085-.018.119-.018a2.992 2.992 0 001.82-1.042 2.954 2.954 0 002.296 1.077 3.01 3.01 0 002.295-1.077 2.954 2.954 0 002.296 1.077 3.01 3.01 0 002.296-1.077c.391.478.918.82 1.53.974.018 0 .035.017.052.017.068.017.136.034.22.051.035 0 .086.018.12.018.05 0 .119.017.17.017.034 0 .085.017.119.017v7.863zm.544-9.333c-.017 0-.017 0 0 0-.085.017-.153.034-.221.051-.068.017-.153.017-.221.017-.102 0-.204-.017-.306-.034-.085-.017-.17-.051-.238-.069-.017 0-.017 0-.034-.017a1.64 1.64 0 01-1.004-1.367v-.121a.69.69 0 00-.697-.7.691.691 0 00-.697.7c0 .034 0 .069-.017.103v.017a1.617 1.617 0 01-1.004 1.367c-.017 0-.017 0-.034.017-.085.035-.17.052-.255.069a1.865 1.865 0 01-.306.034c-.102 0-.204-.017-.306-.034-.085-.017-.17-.051-.238-.069-.017 0-.017 0-.034-.017a1.64 1.64 0 01-1.003-1.367V8.76c0-.035-.017-.052-.017-.086a.69.69 0 00-.698-.7.691.691 0 00-.697.7c0 .034 0 .069-.017.103v.017a1.617 1.617 0 01-1.003 1.367c-.017 0-.017 0-.034.017-.085.035-.17.052-.255.069-.102.017-.204.034-.306.034-.103 0-.205-.017-.307-.034-.085-.017-.17-.051-.255-.069-.017 0-.017 0-.034-.017A1.64 1.64 0 017.08 8.795v-.121a.69.69 0 00-.697-.7.691.691 0 00-.698.7c0 .034 0 .069-.017.103v.017a1.617 1.617 0 01-1.003 1.367c-.017 0-.017 0-.034.017a1.248 1.248 0 01-.238.069c-.102.017-.204.034-.306.034-.051 0-.12-.017-.17-.017-.017 0-.034 0-.068-.017h-.051a1.614 1.614 0 01-1.327-1.59c0-.137.017-.273.068-.444 0-.017.017-.052.017-.069l2.041-5.692h12.755l1.99 5.556s.016.034.016.05l.035.103c0 .017.017.052.017.069.05.17.068.307.068.444 0 .718-.494 1.334-1.157 1.539z"/></svg><view id="profiles--stat-items-bg" viewBox="79 312 87 99"/><svg width="87" height="99" viewBox="-5 -5 87 99" x="79" y="312" xmlns="http://www.w3.org/2000/svg"><path fill="#3E75C9" d="M87.77 55.192L70.76 4.618C69.83 1.854 67.317 0 64.508 0c-.745 0-1.483.131-2.19.387L13.767 18.104c-1.716.626-3.028 1.923-3.764 3.506H6.627C2.973 21.61 0 24.706 0 28.51V82.1C0 85.905 2.973 89 6.627 89h51.442c3.654 0 6.625-3.095 6.625-6.9V70.927L83.71 63.99c1.668-.612 3.01-1.862 3.778-3.523a7.103 7.103 0 00.281-5.274zM58.481 82.154h-51.7v-7.702h51.701v7.702zm0-16.885v1.481h-51.7V28.24h51.701v37.03zM24.58 22.134L63.775 7.702l12.506 37.516-12.21 4.417V29.02c0-3.797-2.94-6.886-6.554-6.886H24.579zm40.684 42.049v-6.744l14.916-5.237 2.035 5.925-16.951 6.056z"/></svg><view id="profiles--stat-wallet-bg" viewBox="0 312 79 101"/><svg width="79" height="101" viewBox="-5 -5 79 101" y="312" xmlns="http://www.w3.org/2000/svg"><g fill="#66A0F6" transform="translate(1 1)"><path stroke="#66A0F6" stroke-width=".2" d="M74.627 47.743V36.261c0-3.771-3.004-6.839-6.697-6.839H41.247a13.948 13.948 0 00.05-6.91c2.452 2.916 6.085 4.769 10.135 4.769 7.366 0 13.36-6.12 13.36-13.64C64.791 6.118 58.797 0 51.431 0s-13.36 6.119-13.36 13.64c0 1.157.144 2.28.41 3.353-2.452-2.916-6.084-4.77-10.135-4.77-7.366 0-13.359 6.12-13.359 13.641 0 1.218.158 2.41.46 3.558h-8.75C3.003 29.422 0 32.49 0 36.261v45.9C0 85.933 3.004 89 6.697 89H67.93c3.692 0 6.697-3.068 6.697-6.838V70.679c3.077-.367 5.473-3.044 5.473-6.282V54.026c0-3.24-2.396-5.916-5.473-6.283zM51.432 5.752c4.26 0 7.726 3.539 7.726 7.888 0 4.35-3.466 7.889-7.726 7.889s-7.726-3.539-7.726-7.889 3.466-7.888 7.726-7.888zM28.348 17.976c4.26 0 7.725 3.538 7.725 7.888a7.963 7.963 0 01-.827 3.558H21.45a7.965 7.965 0 01-.827-3.558c0-4.35 3.465-7.888 7.726-7.888zm40.646 64.186c0 .599-.478 1.086-1.065 1.086H6.697a1.077 1.077 0 01-1.064-1.086V36.26c0-.6.477-1.087 1.064-1.087H67.93c.587 0 1.065.487 1.065 1.087v11.438H49.117c-3.306 0-5.996 2.746-5.996 6.122V64.6c0 3.376 2.69 6.123 5.996 6.123h19.877v11.438zm5.473-17.765a.57.57 0 01-.563.575H49.318a.57.57 0 01-.564-.575V54.026a.57.57 0 01.564-.575h24.586a.57.57 0 01.563.575v10.37z"/><circle cx="57.85" cy="59.241" r="4.45"/></g></svg><view id="profiles--wallet" viewBox="124 443 30 32"/><svg width="30" height="32" viewBox="-5 -5 30 32" x="124" y="443" xmlns="http://www.w3.org/2000/svg"><g fill="#868686" transform="translate(.923 1)"><path stroke="#BCBCBC" stroke-width=".2" d="M17.064 10.729v-2.58c0-.848-.685-1.537-1.528-1.537H9.445a3.089 3.089 0 00.011-1.553A3.037 3.037 0 0011.77 6.13a3.06 3.06 0 003.05-3.065A3.06 3.06 0 0011.77 0a3.06 3.06 0 00-2.956 3.819A3.037 3.037 0 006.5 2.747a3.06 3.06 0 00-2.944 3.865H1.558c-.843 0-1.529.69-1.529 1.536v10.315A1.535 1.535 0 001.558 20h13.978c.843 0 1.528-.69 1.528-1.537v-2.58a1.421 1.421 0 001.25-1.412v-2.33a1.42 1.42 0 00-1.25-1.412zM11.77 1.293a1.77 1.77 0 011.763 1.772 1.77 1.77 0 01-1.763 1.773 1.77 1.77 0 01-1.764-1.773 1.77 1.77 0 011.764-1.772zM6.5 4.039a1.77 1.77 0 011.764 1.773c0 .282-.065.554-.19.8H4.926a1.767 1.767 0 01-.188-.8A1.77 1.77 0 016.5 4.04zm9.279 14.424a.244.244 0 01-.243.244H1.558a.244.244 0 01-.243-.244V8.148c0-.134.11-.244.243-.244h13.978c.134 0 .243.11.243.244v2.57H11.24c-.754 0-1.368.618-1.368 1.377v2.422c0 .759.614 1.376 1.368 1.376h4.538v2.57zm1.249-3.992a.13.13 0 01-.129.13h-5.612a.129.129 0 01-.129-.13v-2.33a.13.13 0 01.13-.13h5.611a.13.13 0 01.129.13v2.33z"/><circle cx="12.442" cy="13.306" r="1"/></g></svg><view id="profiles--wallet-active" viewBox="154 443 30 32"/><svg width="30" height="32" viewBox="-5 -5 30 32" x="154" y="443" xmlns="http://www.w3.org/2000/svg"><g fill="#AE050A" transform="translate(.923 1)"><path stroke="#AE050A" stroke-width=".2" d="M17.064 10.729v-2.58c0-.848-.685-1.537-1.528-1.537H9.445a3.089 3.089 0 00.011-1.553A3.037 3.037 0 0011.77 6.13a3.06 3.06 0 003.05-3.065A3.06 3.06 0 0011.77 0a3.06 3.06 0 00-2.956 3.819A3.037 3.037 0 006.5 2.747a3.06 3.06 0 00-2.944 3.865H1.558c-.843 0-1.529.69-1.529 1.536v10.315A1.535 1.535 0 001.558 20h13.978c.843 0 1.528-.69 1.528-1.537v-2.58a1.421 1.421 0 001.25-1.412v-2.33a1.42 1.42 0 00-1.25-1.412zM11.77 1.293a1.77 1.77 0 011.763 1.772 1.77 1.77 0 01-1.763 1.773 1.77 1.77 0 01-1.764-1.773 1.77 1.77 0 011.764-1.772zM6.5 4.039a1.77 1.77 0 011.764 1.773c0 .282-.065.554-.19.8H4.926a1.767 1.767 0 01-.188-.8A1.77 1.77 0 016.5 4.04zm9.279 14.424a.244.244 0 01-.243.244H1.558a.244.244 0 01-.243-.244V8.148c0-.134.11-.244.243-.244h13.978c.134 0 .243.11.243.244v2.57H11.24c-.754 0-1.368.618-1.368 1.377v2.422c0 .759.614 1.376 1.368 1.376h4.538v2.57zm1.249-3.992a.13.13 0 01-.129.13h-5.612a.129.129 0 01-.129-.13v-2.33a.13.13 0 01.13-.13h5.611a.13.13 0 01.129.13v2.33z"/><circle cx="12.442" cy="13.306" r="1"/></g></svg><view id="report" viewBox="391 443 24 28"/><svg width="24" height="28" viewBox="-5 -5 24 28" x="391" y="443" xmlns="http://www.w3.org/2000/svg"><path fill="#848484" d="M11.08 3.031c-2.613 0-2.672-2.17-5.706-2.17-1.64 0-3.17.734-3.818 1.27V0H0v18h1.556v-6.805c.92-.614 2.317-1.26 3.829-1.26C8.25 9.934 8.652 12 11.205 12 12.855 12 14 10.98 14 10.98V1.96s-1.26 1.07-2.92 1.07zm1.364 7.159a2.81 2.81 0 01-1.239.31c-.756 0-1.165-.272-1.844-.723-.852-.566-2.019-1.342-3.976-1.342-1.54 0-2.886.509-3.83 1.004V3.823c.793-.677 2.229-1.462 3.819-1.462 1.036 0 1.473.33 2.132.827.75.567 1.78 1.344 3.574 1.344.488 0 .945-.064 1.364-.167v5.825z"/></svg><view id="report-hover" viewBox="415 443 24 28"/><svg width="24" height="28" viewBox="-5 -5 24 28" x="415" y="443" xmlns="http://www.w3.org/2000/svg"><path fill="#F3BF00" d="M11.08 3.031c-2.613 0-2.672-2.17-5.706-2.17-1.64 0-3.17.734-3.818 1.27V0H0v18h1.556v-6.805c.92-.614 2.317-1.26 3.829-1.26C8.25 9.934 8.652 12 11.205 12 12.855 12 14 10.98 14 10.98V1.96s-1.26 1.07-2.92 1.07zm1.364 7.159a2.81 2.81 0 01-1.239.31c-.756 0-1.165-.272-1.844-.723-.852-.566-2.019-1.342-3.976-1.342-1.54 0-2.886.509-3.83 1.004V3.823c.793-.677 2.229-1.462 3.819-1.462 1.036 0 1.473.33 2.132.827.75.567 1.78 1.344 3.574 1.344.488 0 .945-.064 1.364-.167v5.825z"/></svg><view id="ribbon" viewBox="254 239 42 66"/><svg width="42" height="66" viewBox="-5 -5 42 66" x="254" y="239" xmlns="http://www.w3.org/2000/svg"><defs><linearGradient id="cqa" x1="50%" x2="50%" y1="100%" y2="0%"><stop offset="0%" stop-color="#EA384D"/><stop offset="100%" stop-color="#D31027"/></linearGradient></defs><g fill="none"><path fill="url(#cqa)" d="M0 0v56l16-15 16 15V0z"/><path fill="#D31027" d="M16 25l-6-9h12z"/><path fill="#FFF" d="M21 12.5H11l-5 6.3L16 30l10-11.2-5-6.3zm-4.1 11.3h-1.8l-2.8-7.6h2.2l1.6 5.6 1.7-5.6h2l-2.9 7.6z"/></g></svg><view id="select-arrow-down" viewBox="0 239 127 73"/><svg width="127" height="73" viewBox="-5 -5 127 73" y="239" xmlns="http://www.w3.org/2000/svg"><path fill="none" d="M-1-1h119v65H-1z"/><path fill="#0f68cf" d="M115.3 1.6c-1.6-1.6-4.2-1.6-5.8 0l-51 51.1L7.4 1.6C5.8 0 3.2 0 1.6 1.6 0 3.2 0 5.8 1.6 7.4l53.9 53.9c.8.8 1.8 1.2 2.9 1.2 1 0 2.1-.4 2.9-1.2l53.9-53.9c1.7-1.6 1.7-4.2.1-5.8z"/></svg><view id="select-arrow-up" viewBox="127 239 127 73"/><svg width="127" height="73" viewBox="-5 -5 127 73" x="127" y="239" xmlns="http://www.w3.org/2000/svg"><path fill="none" d="M-1-1h582v402H-1z"/><path d="M-1-1h119v65H-1V-1z" fill="none"/><path d="M1.588 61.3c1.6 1.6 4.2 1.6 5.8 0l51-51.1 51.1 51.1c1.6 1.6 4.2 1.6 5.8 0 1.6-1.6 1.6-4.2 0-5.8l-53.9-53.9c-.8-.8-1.8-1.2-2.9-1.2-1 0-2.1.4-2.9 1.2l-53.9 53.9c-1.7 1.6-1.7 4.2-.1 5.8z" fill="#0f68cf"/></svg><view id="select_triangle" viewBox="310 196 19 14"/><svg width="19" height="14" viewBox="-5 -5 19 14" x="310" y="196" xmlns="http://www.w3.org/2000/svg"><path fill="#155071" d="M4.5 4L0 0h9z"/></svg><view id="services--icon-bump" viewBox="307 312 26 24"/><svg width="26" height="24" fill="none" viewBox="-5 -5 26 24" x="307" y="312" xmlns="http://www.w3.org/2000/svg"><path fill-rule="evenodd" clip-rule="evenodd" d="M4.786 13.5h6.428v-6H15.5L8 .5l-7.5 7h4.286v6z" fill="#77C81D"/></svg><view id="services--icon-featured" viewBox="359 312 25 24"/><svg width="25" height="24" fill="none" viewBox="-5 -5 25 24" x="359" y="312" xmlns="http://www.w3.org/2000/svg"><path d="M10.56 5.7L7.5.5 4.44 5.7 0 3.1l1.875 7.15v3.25h11.25v-3.25L15 3.1l-4.44 2.6z" fill="#FF9F2B"/></svg><view id="services--icon-vip" viewBox="333 312 26 24"/><svg width="26" height="24" fill="none" viewBox="-5 -5 26 24" x="333" y="312" xmlns="http://www.w3.org/2000/svg"><path fill-rule="evenodd" clip-rule="evenodd" d="M11.75.5h-7.5L.5 5.143 8 13.5l7.5-8.357L11.75.5zM7.39 8.53L5.374 3.177l1.535-.002 1.128 3.96 1.175-3.96 1.413.002-2.02 5.35-1.215.001z" fill="#FF3D00"/></svg><view id="services--premium" viewBox="419 338 30 27"/><svg width="30" height="27" viewBox="-5 -5 30 27" x="419" y="338" xmlns="http://www.w3.org/2000/svg"><path d="M16.635 15.962C16.395 16.078 14.363 17 10 17c-4.363 0-6.396-.922-6.635-1.038L2.527 6.93A2.002 2.002 0 010 5a2 2 0 113.43 1.4l3.243 2.823 2.71-4.71c-.008-.005.157-.275.318-.535a2 2 0 11.6 0c.16.26.325.53.318.535l2.71 4.71L16.57 6.4a2 2 0 11.902.53l-.837 9.032z" fill="#c71b25" fill-rule="evenodd"/></svg><view id="services--premium_active" viewBox="426 372 30 27"/><svg width="30" height="27" viewBox="-5 -5 30 27" x="426" y="372" xmlns="http://www.w3.org/2000/svg"><path d="M16.635 15.962C16.395 16.078 14.363 17 10 17c-4.363 0-6.396-.922-6.635-1.038L2.527 6.93A2.002 2.002 0 010 5a2 2 0 113.43 1.4l3.243 2.823 2.71-4.71c-.008-.005.157-.275.318-.535a2 2 0 11.6 0c.16.26.325.53.318.535l2.71 4.71L16.57 6.4a2 2 0 11.902.53l-.837 9.032z" fill="#D63A47" fill-rule="evenodd"/></svg><view id="services--up" viewBox="214 413 28 30"/><svg width="28" height="30" viewBox="-5 -5 28 30" x="214" y="413" xmlns="http://www.w3.org/2000/svg"><path d="M8.7 0L0 8.7h5V20h7.5V8.7h5L8.7 0z" fill="#c71b25" fill-rule="evenodd"/></svg><view id="services--up_active" viewBox="242 413 28 30"/><svg width="28" height="30" viewBox="-5 -5 28 30" x="242" y="413" xmlns="http://www.w3.org/2000/svg"><path d="M8.7 0L0 8.7h5V20h7.5V8.7h5L8.7 0z" fill="#fff" fill-rule="evenodd"/></svg><view id="services--vip" viewBox="270 413 30 30"/><svg width="30" height="30" viewBox="-5 -5 30 30" x="270" y="413" xmlns="http://www.w3.org/2000/svg"><path fill-rule="evenodd" clip-rule="evenodd" fill="#c71b25" d="M15 1.5H5L0 7.75 10 19 20 7.75 15 1.5zm-4.136 11.25H9.13l-2.877-7.5 2.19-.002 1.61 5.55 1.677-5.55 2.017.002-2.883 7.497z"/></svg><view id="shops--all-ads" viewBox="166 372 40 36"/><svg width="40" height="36" viewBox="-5 -5 40 36" x="166" y="372" xmlns="http://www.w3.org/2000/svg"><g fill="none"><path fill="#4A89DC" d="M17.642.253l7.983 8.597-.9.835-7.983-8.596.004-.004a.605.605 0 01-.168-.415.61.61 0 111.06-.414l.004-.003zM12.28.057a.608.608 0 11.447 1.03l.003.002-7.982 8.595-.9-.835L11.83.253l.003.003a.61.61 0 01.447-.2zM1.228 10.497l3.684 15.35H24.56l3.684-15.35z"/><path fill="#4A89DC" d="M0 8.654h29.473v3.684H0z"/><path d="M10.438 14.794a.614.614 0 00-.614.613v6.142a.614.614 0 001.228 0v-6.143a.614.614 0 00-.614-.613zm4.298 0a.614.614 0 00-.613.613v6.142a.614.614 0 001.227 0v-6.143a.614.614 0 00-.614-.613zm4.298 0a.614.614 0 00-.613.613v6.142a.614.614 0 001.23 0v-6.143a.615.615 0 00-.616-.613z" fill="#F8FCFD"/></g></svg><view id="shops--official" viewBox="226 312 53 26"/><svg width="53" height="26" viewBox="-5 -5 53 26" x="226" y="312" xmlns="http://www.w3.org/2000/svg"><g fill="none" fill-rule="evenodd"><rect width="43" height="16" fill="#3B8BF2" rx="2"/><path fill="#2779E5" d="M2 0h20v16H2a2 2 0 01-2-2V2a2 2 0 012-2z"/><path fill="#FFF" d="M7.543 8.05h1.69c.354 0 .62-.078.796-.235.176-.157.264-.413.264-.767 0-.34-.088-.588-.265-.74-.178-.155-.443-.232-.797-.232h-1.69V8.05zM6 4.878h3.783c.315 0 .598.05.85.152s.468.24.65.418c.18.177.316.38.41.614.096.232.144.483.144.752 0 .412-.087.77-.26 1.07-.174.302-.458.53-.85.688v.02a1.19 1.19 0 01.776.624c.078.148.136.31.172.487.036.176.06.353.073.53.007.112.013.243.02.393.007.15.018.305.034.462.017.157.043.306.08.447.035.14.09.26.16.36H10.5a2.72 2.72 0 01-.157-.797 11.88 11.88 0 00-.088-.885c-.053-.366-.164-.635-.334-.805-.17-.17-.448-.256-.835-.256H7.543v2.742H6V4.877zm9.292 7.173c-.563 0-1.053-.092-1.47-.28a2.86 2.86 0 01-1.035-.77 3.232 3.232 0 01-.614-1.155 4.897 4.897 0 01-.197-1.656c.003-.106.008-.18.015-.227h5.04c-.07-.616-.275-1.1-.613-1.45a1.67 1.67 0 00-1.252-.525c-.393 0-.736.094-1.027.28a1.316 1.316 0 00-.575.81H12.1c.045-.34.153-.654.323-.942.17-.29.388-.54.654-.752.265-.213.573-.378.923-.496.35-.118.73-.177 1.135-.177a3.51 3.51 0 011.445.286c.425.19.786.45 1.08.78.295.332.52.72.68 1.165.156.447.234.925.234 1.436 0 .55-.08 1.05-.24 1.503a3.43 3.43 0 01-.673 1.16c-.288.32-.633.57-1.036.746a3.276 3.276 0 01-1.332.265zm-.01-1.276c.433 0 .796-.135 1.09-.403.296-.268.5-.67.61-1.208h-3.4c.033.23.092.442.177.64.085.195.198.366.34.51.14.144.308.257.505.34.196.08.422.122.678.122zm5.395-1.21h-1.493c-.007.433.072.807.235 1.12.163.316.384.574.663.777.278.205.6.354.963.45.363.094.738.14 1.125.14.48 0 .9-.055 1.263-.166a2.67 2.67 0 00.914-.467c.246-.2.43-.437.555-.712.125-.275.187-.573.187-.894 0-.392-.084-.715-.25-.967a2.093 2.093 0 00-.596-.605c-.23-.15-.46-.26-.693-.33a6.678 6.678 0 00-.544-.14c-.44-.113-.794-.204-1.066-.276a3.955 3.955 0 01-.64-.217c-.153-.072-.256-.15-.31-.235a.63.63 0 01-.077-.334.66.66 0 01.098-.374.853.853 0 01.25-.246 1 1 0 01.34-.137c.125-.027.25-.04.374-.04.19 0 .365.016.526.05.16.03.303.087.427.166a.868.868 0 01.3.324c.075.138.12.31.133.52h1.493c0-.405-.077-.75-.23-1.036a2.013 2.013 0 00-.625-.702 2.635 2.635 0 00-.9-.398 4.463 4.463 0 00-1.055-.123c-.314 0-.63.043-.943.13a2.634 2.634 0 00-.845.392c-.25.176-.45.398-.605.663-.154.265-.23.578-.23.938 0 .32.06.595.18.82.122.227.28.415.478.566.196.15.42.272.668.367.25.095.504.175.766.24.256.073.508.14.757.198.248.058.47.127.667.206.197.08.356.178.477.296a.616.616 0 01.182.46.678.678 0 01-.138.44.965.965 0 01-.344.27c-.137.064-.285.11-.442.132a3.073 3.073 0 01-.442.034c-.203 0-.4-.025-.59-.074a1.468 1.468 0 01-.496-.226 1.116 1.116 0 01-.34-.398 1.287 1.287 0 01-.127-.6zm5.326-4.686v7.016h1.444V6.97h.02l1.72 4.923h1.19l1.72-4.972h.018v4.973h1.444V4.877h-2.172l-1.553 4.825h-.02l-1.64-4.825h-2.172zm8.912 0h1.543v7.016h-1.543V4.877zM35.025 3h1.325v1.15h-1.326V3z"/></g></svg><view id="shops--phone-mobile" viewBox="300 413 30 30"/><svg width="30" height="30" viewBox="-5 -5 30 30" x="300" y="413" xmlns="http://www.w3.org/2000/svg"><path fill="#FFF" fill-rule="evenodd" d="M18.89 13.89a12.57 12.57 0 01-4-.668c-.334-.11-.78 0-1.112.222l-2.444 2.445C8.22 14.333 5.666 11.666 4 8.555L6.444 6.11c.334-.333.445-.778.222-1.11-.332-1.223-.555-2.557-.555-3.89C6.11.444 5.667 0 5 0H1.11C.445 0 0 .444 0 1.11 0 11.557 8.444 20 18.89 20c.666 0 1.11-.444 1.11-1.11V15c0-.666-.444-1.11-1.11-1.11z"/></svg><view id="shops--phone-small" viewBox="142 475 22 23"/><svg width="22" height="23" viewBox="-5 -5 22 23" x="142" y="475" xmlns="http://www.w3.org/2000/svg"><path d="M11.854 10.31L8.976 7.311a.231.231 0 00-.233-.063l-.429.127a.233.233 0 00-.067.032l-.44.307-.657.456a11.41 11.41 0 01-3.215-3.423l.479-.499.368-.382a.25.25 0 00.06-.107l.122-.447a.255.255 0 00-.06-.243L2.026.072a.23.23 0 00-.251-.056l-.49.191A.237.237 0 001.2.264 4.27 4.27 0 00.894.62c-1.3 1.696-1.168 4.133.306 5.67l4.685 4.879a4.002 4.002 0 002.894 1.25c.897 0 1.798-.307 2.548-.931.12-.1.236-.208.343-.32a.25.25 0 00.054-.088l.184-.51a.255.255 0 00-.054-.262zM1.5.65l.297-.116L4.47 3.317l-.067.245-.156.163L1.402.762a2.09 2.09 0 01.099-.11zm4.72 10.17L1.535 5.94C.296 4.65.13 2.636 1.106 1.153L3.91 4.074l-.444.463a.255.255 0 00-.035.304 11.89 11.89 0 003.592 3.835.23.23 0 00.26-.002l.625-.435 2.908 3.029c-1.424 1.016-3.355.844-4.596-.448zm5.077.037c-.034.035-.07.07-.106.103l-2.88-3.001.168-.118.259-.077 2.67 2.783-.11.31zm-4.6-.596a.255.255 0 010 .35.232.232 0 01-.336 0l-1.77-1.843a.255.255 0 010-.35.23.23 0 01.337 0l1.769 1.843zM4.264 7.725a.255.255 0 010 .35.232.232 0 01-.336 0l-.119-.123a.255.255 0 010-.35.23.23 0 01.336 0l.119.123z" fill="#22A7F0" fill-rule="evenodd"/></svg><view id="shops--salon-az" viewBox="296 239 62 62"/><svg width="62" height="62" viewBox="-5 -5 62 62" x="296" y="239" xmlns="http://www.w3.org/2000/svg"><path fill="none" d="M-1-1h582v402H-1z"/><g fill-rule="evenodd" fill="none"><path d="M27.153.863l24.24 23.917v26.977L.753.867l26.4-.004z" fill="#2779E5"/><path d="M24.743 7.362c-.006-.762-.34-1.475-1.004-2.14-.628-.627-1.276-.984-1.945-1.073-.668-.088-1.236.102-1.702.568-.52.52-.703 1.123-.552 1.813.103.477.407 1.09.91 1.843.388.576.62 1.02.692 1.33.067.285.013.516-.164.692-.238.24-.55.296-.933.17-.33-.102-.663-.32-.995-.652-.305-.306-.492-.648-.56-1.027-.083-.436.024-.8.32-1.097l-1.027-1.027c-.607.607-.848 1.32-.724 2.14.114.714.464 1.365 1.05 1.95.685.686 1.38 1.075 2.085 1.168.71.098 1.324-.112 1.842-.63.514-.513.71-1.09.59-1.727-.092-.498-.426-1.18-1.002-2.045-.347-.535-.56-.924-.638-1.167-.093-.29-.052-.524.125-.7.197-.197.46-.247.785-.148.3.093.597.285.887.576.32.32.5.656.536 1.003a1.03 1.03 0 01-.31.856l1.025 1.026a2.322 2.322 0 00.71-1.703l-.001.001zm-1.423 6.354l-1.447.715-1.09-1.09 7.28-3.514 1.3 1.3-3.516 7.28-1.09-1.09.716-1.446-2.154-2.154.001-.001zm4.247-2.1l-2.972 1.462 1.51 1.51 1.463-2.973-.001.001zm.847 7.443l4.442-4.44-1.035-1.036-5.398 5.398 3.717 3.718.957-.956-2.684-2.684h.001zm11.364 3.85c-.04 1.037-.456 1.95-1.244 2.738-.794.795-1.71 1.212-2.746 1.254-1.047.04-1.95-.317-2.707-1.074-.757-.757-1.117-1.662-1.08-2.714.04-1.037.458-1.953 1.25-2.746.79-.788 1.702-1.203 2.74-1.245 1.052-.036 1.957.325 2.714 1.082.758.757 1.116 1.66 1.074 2.706l-.001-.001zm-4.044 2.536c.67-.048 1.257-.325 1.765-.833.503-.503.778-1.09.825-1.758.046-.68-.15-1.24-.59-1.68-.447-.447-1.01-.647-1.69-.6-.67.047-1.254.32-1.757.824-.508.51-.786 1.097-.832 1.766-.046.68.154 1.242.6 1.688.44.44 1 .638 1.68.59l-.001.003zm5.297 8.143l5.398-5.398-1.036-1.033L41.551 31l1.65-6.036-1.238-1.237-5.398 5.398 1.027 1.027 3.84-3.843-1.64 6.044 1.237 1.237.002-.002z" fill="#FFF"/></g></svg><view id="shops--salon-ru" viewBox="358 239 62 62"/><svg width="62" height="62" viewBox="-5 -5 62 62" x="358" y="239" xmlns="http://www.w3.org/2000/svg"><path fill="none" d="M-1-1h582v402H-1z"/><g fill-rule="evenodd" fill="none"><path d="M27.153.863l24.24 23.917v26.977L.753.867l26.4-.004z" fill="#2779E5"/><path d="M22.059 12.153l-1.105-1.104c-.865.296-1.604.137-2.216-.475-.44-.44-.63-1.003-.567-1.687.057-.67.344-1.263.863-1.782.513-.513 1.107-.8 1.78-.863.68-.057 1.24.135 1.68.576.618.618.78 1.35.49 2.2l1.114 1.114c.383-.726.523-1.462.42-2.21-.115-.756-.475-1.438-1.082-2.045-.736-.737-1.628-1.084-2.675-1.043-1.048.042-1.966.457-2.754 1.245s-1.203 1.706-1.244 2.753c-.043 1.048.305 1.94 1.04 2.676.592.592 1.27.945 2.04 1.06.75.108 1.49-.03 2.216-.414v-.001zm1.057 2.319l-1.446.716-1.09-1.09 7.28-3.515 1.3 1.3-3.516 7.28-1.088-1.09.716-1.446-2.155-2.156-.001.001zm4.247-2.1l-2.97 1.463 1.508 1.51 1.462-2.973zm-.49 8.02l5.608-3.275.74.738-3.29 5.592 1.088 1.09 3.99-6.807-2.403-2.403-6.822 3.975 1.09 1.09h-.001zm13.713 4.285c-.04 1.036-.456 1.95-1.244 2.737-.795.794-1.71 1.21-2.747 1.253-1.047.04-1.95-.317-2.707-1.074-.757-.757-1.117-1.662-1.08-2.714.04-1.038.458-1.953 1.25-2.746.79-.788 1.702-1.203 2.74-1.245 1.052-.035 1.957.325 2.714 1.083.757.757 1.115 1.66 1.073 2.706h.001zm-4.044 2.535c.668-.047 1.256-.324 1.764-.832.503-.503.778-1.09.825-1.758.045-.68-.15-1.24-.592-1.68-.446-.446-1.01-.646-1.688-.6-.67.048-1.255.322-1.758.825-.508.51-.786 1.097-.832 1.766-.047.68.153 1.242.6 1.688.44.44 1 .638 1.68.59l.001.001zm5.194 8.043l5.399-5.398-1.026-1.027-2.163 2.162-2.302-2.302 2.163-2.162-1.034-1.034-5.4 5.398 1.035 1.035 2.28-2.28 2.302 2.302-2.28 2.28 1.027 1.026h-.001z" fill="#FFF"/></g></svg><view id="shops--schedule" viewBox="184 443 32 32"/><svg width="32" height="32" viewBox="-5 -5 32 32" x="184" y="443" xmlns="http://www.w3.org/2000/svg"><path fill="#4A89DC" d="M11 0C4.95 0 0 4.95 0 11s4.95 11 11 11 11-4.95 11-11S17.05 0 11 0zm0 19.8c-4.84 0-8.8-3.96-8.8-8.8 0-4.84 3.96-8.8 8.8-8.8 4.84 0 8.8 3.96 8.8 8.8 0 4.84-3.96 8.8-8.8 8.8zm.55-14.3H9.9v6.6l5.72 3.52.88-1.43-4.95-2.97V5.5z"/></svg><view id="shops--special-offer" viewBox="206 372 32 36"/><svg width="32" height="36" viewBox="-5 -5 32 36" x="206" y="372" xmlns="http://www.w3.org/2000/svg"><g fill="#FFF" fill-rule="evenodd"><path d="M9.574 4.874c.164-.438.501-.467.748-.065l2.897 4.73c.246.402.83.754 1.296.782l5.482.327c.467.028.602.342.301.698l-3.537 4.178c-.301.355-.447 1.019-.323 1.474l1.45 5.346c.124.455-.129.678-.561.495l-5.084-2.146c-.432-.183-1.105-.125-1.496.128l-4.584 2.977c-.39.253-.682.077-.649-.391l.396-5.505c.033-.469-.237-1.096-.602-1.395l-4.284-3.506c-.365-.299-.292-.63.16-.737l5.328-1.256c.454-.107.96-.552 1.125-.99l1.937-5.144zM8.81.927a.673.673 0 01.61-.74.691.691 0 01.742.623l.15 1.534a.673.673 0 01-.61.74.691.691 0 01-.743-.624L8.81.927z"/><path d="M11.242 24.914a.673.673 0 00.75.596.69.69 0 00.596-.764l-.174-1.531a.672.672 0 00-.75-.597.69.69 0 00-.596.765l.174 1.53zM2.514 21.13a.677.677 0 01-.96-.011.687.687 0 01-.001-.967l1.08-1.075a.676.676 0 01.96.011.687.687 0 01.002.968l-1.08 1.075zM.424 8.439a.692.692 0 01-.228-.943.672.672 0 01.933-.218l1.307.816c.32.2.423.621.228.942a.672.672 0 01-.933.218L.424 8.439zM20.569 19.58a.673.673 0 00.943-.175.69.69 0 00-.186-.951l-1.27-.873a.672.672 0 00-.943.175.69.69 0 00.186.951l1.27.873zm-.393-12.837a.686.686 0 00.043-.966.677.677 0 00-.96-.055l-1.128 1.024a.686.686 0 00-.043.965.677.677 0 00.96.056l1.128-1.024z"/></g></svg><view id="social-links--facebook" viewBox="216 443 32 32"/><svg width="32" height="32" viewBox="-5 -5 32 32" x="216" y="443" xmlns="http://www.w3.org/2000/svg"><path d="M0 2.545A2.543 2.543 0 012.545 0h16.91A2.543 2.543 0 0122 2.545v16.91A2.543 2.543 0 0119.455 22H2.545A2.543 2.543 0 010 19.455V2.545zM14.667 9.59V7.742c0-.833.184-1.255 1.478-1.255h1.624V3.385h-2.483c-3.102 0-4.343 2.07-4.343 4.343V9.59H8.462v3.102h2.482V22h3.723v-9.308H17.4l.37-3.102h-3.103z" fill="#E6E6E6" fill-rule="evenodd"/></svg><view id="social-links--instagram" viewBox="248 443 32 32"/><svg width="32" height="32" viewBox="-5 -5 32 32" x="248" y="443" xmlns="http://www.w3.org/2000/svg"><path d="M19.462 9.307h-1.915A6.77 6.77 0 0117.77 11a6.77 6.77 0 01-13.54 0c0-.586.084-1.152.223-1.693H2.538v9.308c0 .467.38.846.847.846h15.23a.846.846 0 00.847-.845V9.307zm0-5.922a.847.847 0 00-.847-.847h-2.538a.846.846 0 00-.846.847v2.538c0 .467.38.846.847.846h2.538c.468 0 .847-.38.847-.847V3.385zM11 6.77a4.23 4.23 0 100 8.46 4.23 4.23 0 000-8.46zM19.462 22H2.538A2.54 2.54 0 010 19.46V2.54A2.538 2.538 0 012.538 0h16.924A2.538 2.538 0 0122 2.538V19.46A2.54 2.54 0 0119.462 22z" fill="#E6E6E6" fill-rule="evenodd"/></svg><view id="social-links--twitter" viewBox="280 443 32 32"/><svg width="32" height="32" viewBox="-5 -5 32 32" x="280" y="443" xmlns="http://www.w3.org/2000/svg"><path d="M0 2.545A2.543 2.543 0 012.545 0h16.91A2.543 2.543 0 0122 2.545v16.91A2.543 2.543 0 0119.455 22H2.545A2.543 2.543 0 010 19.455V2.545zM19.462 6.58a6.836 6.836 0 01-1.895.507 3.23 3.23 0 001.45-1.772 6.678 6.678 0 01-2.093.777 3.342 3.342 0 00-2.41-1.015c-1.822 0-3.297 1.434-3.297 3.203 0 .25.027.496.085.73a9.445 9.445 0 01-6.8-3.348 3.13 3.13 0 00-.446 1.61c0 1.11.586 2.092 1.47 2.667a3.293 3.293 0 01-1.498-.4v.04c0 1.552 1.14 2.845 2.647 3.14-.275.07-.568.11-.868.11-.21 0-.42-.02-.62-.058.42 1.272 1.64 2.198 3.083 2.224a6.744 6.744 0 01-4.098 1.372c-.266 0-.528-.017-.787-.046a9.427 9.427 0 005.048 1.447c6.075 0 9.393-4.883 9.393-9.117 0-.14-.004-.278-.01-.413a6.608 6.608 0 001.646-1.66z" fill="#E6E6E6" fill-rule="evenodd"/></svg><view id="sort-select" viewBox="288 196 22 16"/><svg width="22" height="16" viewBox="-5 -5 22 16" x="288" y="196" xmlns="http://www.w3.org/2000/svg"><path d="M5.404 5.614L.246 1.221a.643.643 0 010-1.012.947.947 0 011.188 0l4.564 3.887L10.562.21a.947.947 0 011.188 0 .643.643 0 010 1.011L6.592 5.614a.918.918 0 01-.594.21.918.918 0 01-.594-.21z" fill="#6B6B6B" fill-rule="evenodd"/></svg><view id="supplies-shops--breadcrumbs" viewBox="104 475 20 25"/><svg width="20" height="25" viewBox="-5 -5 20.94 25.86" x="104" y="475" xmlns="http://www.w3.org/2000/svg"><path fill="#c1c3c4" d="M2 0L0 2l6.938 5.938L0 13.875l2 2 8.938-7.937z"/></svg><view id="supplies-shops--phones" viewBox="226 338 35 34"/><svg width="35" height="34" viewBox="-5 -5 35 34" x="226" y="338" xmlns="http://www.w3.org/2000/svg"><path fill="#666C7B" d="M5.16 10.387a20.188 20.188 0 008.777 8.786l2.93-2.933c.36-.36.893-.48 1.36-.32a15.18 15.18 0 004.755.76c.732 0 1.332.6 1.332 1.333v4.654c0 .733-.6 1.333-1.332 1.333C10.474 24 .337 13.853.337 1.333.337.6.937 0 1.67 0h4.662c.733 0 1.332.6 1.332 1.333 0 1.667.267 3.267.76 4.76.146.467.04.987-.333 1.36l-2.93 2.934z"/></svg><view id="supplies-shops--play-icon" viewBox="456 50 50 50"/><svg width="50" height="50" viewBox="-5 -5 50 50" x="456" y="50" xmlns="http://www.w3.org/2000/svg"><g fill="none" fill-rule="evenodd"><circle cx="20" cy="20" r="20" fill="#D0021B"/><path fill="#FFFEFF" d="M29.16 19.665l-13.161-8.242c-.54-.338-1.216.088-1.216.762v16.5c0 .674.675 1.1 1.216.762l13.16-8.242c.541-.352.541-1.203 0-1.54z"/></g></svg><view id="vip-modal--close-btn" viewBox="456 168 44 44"/><svg viewBox="-5 -5 340 340" width="44" height="44" x="456" y="168" xmlns="http://www.w3.org/2000/svg"><circle cx="165" cy="165" r="150"/><g fill="#FFF"><path d="M281.673 48.327C250.51 17.163 209.073 0 165 0S79.492 17.163 48.328 48.327c-64.333 64.333-64.334 169.01 0 233.345C79.49 312.837 120.927 330 165 330s85.51-17.163 116.673-48.328c64.333-64.334 64.333-169.012 0-233.345zM260.46 260.46C234.962 285.956 201.06 300 165 300s-69.962-14.043-95.46-39.54c-52.636-52.638-52.635-138.283 0-190.92C95.04 44.042 128.94 30 165 30s69.962 14.042 95.46 39.54c52.635 52.636 52.635 138.282 0 190.92z"/><path d="M186.213 165l53.032-53.033c5.858-5.857 5.858-15.355 0-21.213-5.857-5.857-15.355-5.857-21.213 0L165 143.787l-53.033-53.033c-5.857-5.857-15.355-5.857-21.213 0-5.858 5.857-5.858 15.355 0 21.213L143.787 165l-53.033 53.033c-5.858 5.857-5.858 15.355 0 21.213a14.952 14.952 0 0010.607 4.394c3.84 0 7.68-1.465 10.607-4.394L165 186.213l53.033 53.032c2.93 2.93 6.768 4.394 10.606 4.394s7.677-1.466 10.606-4.395c5.858-5.857 5.858-15.355 0-21.213L186.213 165z"/></g></svg><view id="vipped-icon" viewBox="214 196 27 23"/><svg viewBox="-5 -5 27 23" width="27" height="23" x="214" y="196" xmlns="http://www.w3.org/2000/svg"><g fill="none" fill-rule="evenodd"><path fill="#FFF" d="M4.779 1.857h6.691v6.5H4.779z"/><path fill="#FF4F08" d="M12.241 0l3.936 4.643L8.305 13 .433 4.643 4.37 0h7.872zM9.577 2.676l-1.233 3.96-1.184-3.96-1.61.002 2.116 5.351 1.275-.002 2.12-5.35H9.576z"/></g></svg></svg>